<mxfile host="app.diagrams.net" agent="Mozilla/5.0 (Macintosh; Intel Mac OS X 10_15_7) AppleWebKit/537.36 (KHTML, like Gecko) Chrome/128.0.0.0 Safari/537.36" version="24.7.14" pages="5">
  <diagram id="C5RBs43oDa-KdzZeNtuy" name="v1">
    <mxGraphModel dx="1562" dy="1019" grid="0" gridSize="10" guides="1" tooltips="1" connect="1" arrows="1" fold="1" page="1" pageScale="1" pageWidth="827" pageHeight="1169" math="0" shadow="0">
      <root>
        <mxCell id="WIyWlLk6GJQsqaUBKTNV-0" />
        <mxCell id="WIyWlLk6GJQsqaUBKTNV-1" parent="WIyWlLk6GJQsqaUBKTNV-0" />
        <mxCell id="6cggbh9Jsr4U8usKFyKE-6" value="FrontControllerServletV1" style="swimlane;fontStyle=1;align=center;verticalAlign=top;childLayout=stackLayout;horizontal=1;startSize=26;horizontalStack=0;resizeParent=1;resizeParentMax=0;resizeLast=0;collapsible=1;marginBottom=0;whiteSpace=wrap;html=1;" parent="WIyWlLk6GJQsqaUBKTNV-1" vertex="1">
          <mxGeometry x="206" y="484" width="370" height="112" as="geometry" />
        </mxCell>
        <mxCell id="6cggbh9Jsr4U8usKFyKE-7" value="&lt;span style=&quot;text-wrap: nowrap;&quot;&gt;- controllerMap : Map&amp;lt;String, ControllerV1&amp;gt;&lt;/span&gt;" style="text;strokeColor=none;fillColor=none;align=left;verticalAlign=top;spacingLeft=4;spacingRight=4;overflow=hidden;rotatable=0;points=[[0,0.5],[1,0.5]];portConstraint=eastwest;whiteSpace=wrap;html=1;" parent="6cggbh9Jsr4U8usKFyKE-6" vertex="1">
          <mxGeometry y="26" width="370" height="26" as="geometry" />
        </mxCell>
        <mxCell id="6cggbh9Jsr4U8usKFyKE-8" value="" style="line;strokeWidth=1;fillColor=none;align=left;verticalAlign=middle;spacingTop=-1;spacingLeft=3;spacingRight=3;rotatable=0;labelPosition=right;points=[];portConstraint=eastwest;strokeColor=inherit;" parent="6cggbh9Jsr4U8usKFyKE-6" vertex="1">
          <mxGeometry y="52" width="370" height="8" as="geometry" />
        </mxCell>
        <mxCell id="6cggbh9Jsr4U8usKFyKE-11" value="&lt;span style=&quot;text-wrap: nowrap;&quot;&gt;+ FrontControllerServletV1()&lt;/span&gt;" style="text;strokeColor=none;fillColor=none;align=left;verticalAlign=top;spacingLeft=4;spacingRight=4;overflow=hidden;rotatable=0;points=[[0,0.5],[1,0.5]];portConstraint=eastwest;whiteSpace=wrap;html=1;" parent="6cggbh9Jsr4U8usKFyKE-6" vertex="1">
          <mxGeometry y="60" width="370" height="26" as="geometry" />
        </mxCell>
        <mxCell id="6cggbh9Jsr4U8usKFyKE-9" value="+ service(HttpServletRequest, HttpServletResponse) : void" style="text;strokeColor=none;fillColor=none;align=left;verticalAlign=top;spacingLeft=4;spacingRight=4;overflow=hidden;rotatable=0;points=[[0,0.5],[1,0.5]];portConstraint=eastwest;whiteSpace=wrap;html=1;" parent="6cggbh9Jsr4U8usKFyKE-6" vertex="1">
          <mxGeometry y="86" width="370" height="26" as="geometry" />
        </mxCell>
        <mxCell id="6cggbh9Jsr4U8usKFyKE-18" value="&lt;p style=&quot;margin:0px;margin-top:4px;text-align:center;&quot;&gt;&lt;i&gt;&amp;lt;&amp;lt;Interface&amp;gt;&amp;gt;&lt;/i&gt;&lt;br&gt;&lt;b&gt;ControllerV1&lt;/b&gt;&lt;/p&gt;&lt;hr size=&quot;1&quot; style=&quot;border-style:solid;&quot;&gt;&lt;p style=&quot;margin:0px;margin-left:4px;&quot;&gt;-&amp;nbsp;&lt;br&gt;&lt;br&gt;&lt;/p&gt;&lt;hr size=&quot;1&quot; style=&quot;border-style:solid;&quot;&gt;&lt;p style=&quot;margin:0px;margin-left:4px;&quot;&gt;+ process(HttpServletRequest, HttpServletResponse): void&lt;br&gt;&lt;/p&gt;" style="verticalAlign=top;align=left;overflow=fill;html=1;whiteSpace=wrap;" parent="WIyWlLk6GJQsqaUBKTNV-1" vertex="1">
          <mxGeometry x="1175" y="476" width="340" height="110" as="geometry" />
        </mxCell>
        <mxCell id="6cggbh9Jsr4U8usKFyKE-19" value="MemberFormControllerV1" style="swimlane;fontStyle=1;align=center;verticalAlign=top;childLayout=stackLayout;horizontal=1;startSize=26;horizontalStack=0;resizeParent=1;resizeParentMax=0;resizeLast=0;collapsible=1;marginBottom=0;whiteSpace=wrap;html=1;" parent="WIyWlLk6GJQsqaUBKTNV-1" vertex="1">
          <mxGeometry x="695" y="374" width="370" height="86" as="geometry" />
        </mxCell>
        <mxCell id="6cggbh9Jsr4U8usKFyKE-20" value="&lt;span style=&quot;text-wrap: nowrap;&quot;&gt;-&amp;nbsp;&lt;/span&gt;" style="text;strokeColor=none;fillColor=none;align=left;verticalAlign=top;spacingLeft=4;spacingRight=4;overflow=hidden;rotatable=0;points=[[0,0.5],[1,0.5]];portConstraint=eastwest;whiteSpace=wrap;html=1;" parent="6cggbh9Jsr4U8usKFyKE-19" vertex="1">
          <mxGeometry y="26" width="370" height="26" as="geometry" />
        </mxCell>
        <mxCell id="6cggbh9Jsr4U8usKFyKE-21" value="" style="line;strokeWidth=1;fillColor=none;align=left;verticalAlign=middle;spacingTop=-1;spacingLeft=3;spacingRight=3;rotatable=0;labelPosition=right;points=[];portConstraint=eastwest;strokeColor=inherit;" parent="6cggbh9Jsr4U8usKFyKE-19" vertex="1">
          <mxGeometry y="52" width="370" height="8" as="geometry" />
        </mxCell>
        <mxCell id="6cggbh9Jsr4U8usKFyKE-23" value="+ process(HttpServletRequest, HttpServletResponse) : void" style="text;strokeColor=none;fillColor=none;align=left;verticalAlign=top;spacingLeft=4;spacingRight=4;overflow=hidden;rotatable=0;points=[[0,0.5],[1,0.5]];portConstraint=eastwest;whiteSpace=wrap;html=1;" parent="6cggbh9Jsr4U8usKFyKE-19" vertex="1">
          <mxGeometry y="60" width="370" height="26" as="geometry" />
        </mxCell>
        <mxCell id="6cggbh9Jsr4U8usKFyKE-28" value="MemberListControllerV1" style="swimlane;fontStyle=1;align=center;verticalAlign=top;childLayout=stackLayout;horizontal=1;startSize=26;horizontalStack=0;resizeParent=1;resizeParentMax=0;resizeLast=0;collapsible=1;marginBottom=0;whiteSpace=wrap;html=1;" parent="WIyWlLk6GJQsqaUBKTNV-1" vertex="1">
          <mxGeometry x="695" y="484" width="370" height="86" as="geometry" />
        </mxCell>
        <mxCell id="6cggbh9Jsr4U8usKFyKE-29" value="&lt;span style=&quot;text-wrap: nowrap;&quot;&gt;-&amp;nbsp;&lt;/span&gt;" style="text;strokeColor=none;fillColor=none;align=left;verticalAlign=top;spacingLeft=4;spacingRight=4;overflow=hidden;rotatable=0;points=[[0,0.5],[1,0.5]];portConstraint=eastwest;whiteSpace=wrap;html=1;" parent="6cggbh9Jsr4U8usKFyKE-28" vertex="1">
          <mxGeometry y="26" width="370" height="26" as="geometry" />
        </mxCell>
        <mxCell id="6cggbh9Jsr4U8usKFyKE-30" value="" style="line;strokeWidth=1;fillColor=none;align=left;verticalAlign=middle;spacingTop=-1;spacingLeft=3;spacingRight=3;rotatable=0;labelPosition=right;points=[];portConstraint=eastwest;strokeColor=inherit;" parent="6cggbh9Jsr4U8usKFyKE-28" vertex="1">
          <mxGeometry y="52" width="370" height="8" as="geometry" />
        </mxCell>
        <mxCell id="6cggbh9Jsr4U8usKFyKE-31" value="+ process(HttpServletRequest, HttpServletResponse) : void" style="text;strokeColor=none;fillColor=none;align=left;verticalAlign=top;spacingLeft=4;spacingRight=4;overflow=hidden;rotatable=0;points=[[0,0.5],[1,0.5]];portConstraint=eastwest;whiteSpace=wrap;html=1;" parent="6cggbh9Jsr4U8usKFyKE-28" vertex="1">
          <mxGeometry y="60" width="370" height="26" as="geometry" />
        </mxCell>
        <mxCell id="6cggbh9Jsr4U8usKFyKE-32" value="MemberSaveControllerV1" style="swimlane;fontStyle=1;align=center;verticalAlign=top;childLayout=stackLayout;horizontal=1;startSize=26;horizontalStack=0;resizeParent=1;resizeParentMax=0;resizeLast=0;collapsible=1;marginBottom=0;whiteSpace=wrap;html=1;" parent="WIyWlLk6GJQsqaUBKTNV-1" vertex="1">
          <mxGeometry x="695" y="594" width="370" height="86" as="geometry" />
        </mxCell>
        <mxCell id="6cggbh9Jsr4U8usKFyKE-33" value="&lt;span style=&quot;text-wrap: nowrap;&quot;&gt;-&amp;nbsp;&lt;/span&gt;" style="text;strokeColor=none;fillColor=none;align=left;verticalAlign=top;spacingLeft=4;spacingRight=4;overflow=hidden;rotatable=0;points=[[0,0.5],[1,0.5]];portConstraint=eastwest;whiteSpace=wrap;html=1;" parent="6cggbh9Jsr4U8usKFyKE-32" vertex="1">
          <mxGeometry y="26" width="370" height="26" as="geometry" />
        </mxCell>
        <mxCell id="6cggbh9Jsr4U8usKFyKE-34" value="" style="line;strokeWidth=1;fillColor=none;align=left;verticalAlign=middle;spacingTop=-1;spacingLeft=3;spacingRight=3;rotatable=0;labelPosition=right;points=[];portConstraint=eastwest;strokeColor=inherit;" parent="6cggbh9Jsr4U8usKFyKE-32" vertex="1">
          <mxGeometry y="52" width="370" height="8" as="geometry" />
        </mxCell>
        <mxCell id="6cggbh9Jsr4U8usKFyKE-35" value="+ process(HttpServletRequest, HttpServletResponse) : void" style="text;strokeColor=none;fillColor=none;align=left;verticalAlign=top;spacingLeft=4;spacingRight=4;overflow=hidden;rotatable=0;points=[[0,0.5],[1,0.5]];portConstraint=eastwest;whiteSpace=wrap;html=1;" parent="6cggbh9Jsr4U8usKFyKE-32" vertex="1">
          <mxGeometry y="60" width="370" height="26" as="geometry" />
        </mxCell>
        <mxCell id="6cggbh9Jsr4U8usKFyKE-42" value="Use" style="endArrow=open;endSize=12;dashed=1;html=1;rounded=0;entryX=0;entryY=0.25;entryDx=0;entryDy=0;" parent="WIyWlLk6GJQsqaUBKTNV-1" target="6cggbh9Jsr4U8usKFyKE-19" edge="1">
          <mxGeometry width="160" relative="1" as="geometry">
            <mxPoint x="578" y="497" as="sourcePoint" />
            <mxPoint x="741" y="528" as="targetPoint" />
          </mxGeometry>
        </mxCell>
        <mxCell id="6cggbh9Jsr4U8usKFyKE-43" value="Use" style="endArrow=open;endSize=12;dashed=1;html=1;rounded=0;entryX=0.005;entryY=0.163;entryDx=0;entryDy=0;entryPerimeter=0;exitX=1.003;exitY=0.143;exitDx=0;exitDy=0;exitPerimeter=0;" parent="WIyWlLk6GJQsqaUBKTNV-1" source="6cggbh9Jsr4U8usKFyKE-6" target="6cggbh9Jsr4U8usKFyKE-28" edge="1">
          <mxGeometry width="160" relative="1" as="geometry">
            <mxPoint x="582" y="527" as="sourcePoint" />
            <mxPoint x="705" y="457" as="targetPoint" />
          </mxGeometry>
        </mxCell>
        <mxCell id="6cggbh9Jsr4U8usKFyKE-44" value="Use" style="endArrow=open;endSize=12;dashed=1;html=1;rounded=0;entryX=-0.003;entryY=0.14;entryDx=0;entryDy=0;entryPerimeter=0;" parent="WIyWlLk6GJQsqaUBKTNV-1" target="6cggbh9Jsr4U8usKFyKE-32" edge="1">
          <mxGeometry width="160" relative="1" as="geometry">
            <mxPoint x="577" y="501" as="sourcePoint" />
            <mxPoint x="695" y="512.5" as="targetPoint" />
          </mxGeometry>
        </mxCell>
        <mxCell id="6cggbh9Jsr4U8usKFyKE-45" value="" style="endArrow=block;startArrow=block;endFill=1;startFill=1;html=1;rounded=0;entryX=0;entryY=0.25;entryDx=0;entryDy=0;" parent="WIyWlLk6GJQsqaUBKTNV-1" target="6cggbh9Jsr4U8usKFyKE-18" edge="1">
          <mxGeometry width="160" relative="1" as="geometry">
            <mxPoint x="1066" y="391" as="sourcePoint" />
            <mxPoint x="1222" y="393" as="targetPoint" />
          </mxGeometry>
        </mxCell>
        <mxCell id="6cggbh9Jsr4U8usKFyKE-46" value="" style="endArrow=block;startArrow=block;endFill=1;startFill=1;html=1;rounded=0;entryX=0;entryY=0.25;entryDx=0;entryDy=0;" parent="WIyWlLk6GJQsqaUBKTNV-1" target="6cggbh9Jsr4U8usKFyKE-18" edge="1">
          <mxGeometry width="160" relative="1" as="geometry">
            <mxPoint x="1065" y="502" as="sourcePoint" />
            <mxPoint x="1154" y="603" as="targetPoint" />
          </mxGeometry>
        </mxCell>
        <mxCell id="6cggbh9Jsr4U8usKFyKE-48" value="Implements" style="edgeLabel;html=1;align=center;verticalAlign=middle;resizable=0;points=[];" parent="6cggbh9Jsr4U8usKFyKE-46" vertex="1" connectable="0">
          <mxGeometry x="-0.0181" relative="1" as="geometry">
            <mxPoint as="offset" />
          </mxGeometry>
        </mxCell>
        <mxCell id="6cggbh9Jsr4U8usKFyKE-47" value="" style="endArrow=block;startArrow=block;endFill=1;startFill=1;html=1;rounded=0;entryX=0;entryY=0.25;entryDx=0;entryDy=0;" parent="WIyWlLk6GJQsqaUBKTNV-1" target="6cggbh9Jsr4U8usKFyKE-18" edge="1">
          <mxGeometry width="160" relative="1" as="geometry">
            <mxPoint x="1065" y="609" as="sourcePoint" />
            <mxPoint x="1155" y="599" as="targetPoint" />
          </mxGeometry>
        </mxCell>
        <mxCell id="6cggbh9Jsr4U8usKFyKE-49" value="Implements" style="edgeLabel;html=1;align=center;verticalAlign=middle;resizable=0;points=[];" parent="WIyWlLk6GJQsqaUBKTNV-1" vertex="1" connectable="0">
          <mxGeometry x="1116.00498003893" y="446.99629518234906" as="geometry" />
        </mxCell>
        <mxCell id="6cggbh9Jsr4U8usKFyKE-50" value="Implements" style="edgeLabel;html=1;align=center;verticalAlign=middle;resizable=0;points=[];" parent="WIyWlLk6GJQsqaUBKTNV-1" vertex="1" connectable="0">
          <mxGeometry x="1116.00498003893" y="555.9962951823491" as="geometry" />
        </mxCell>
        <mxCell id="6cggbh9Jsr4U8usKFyKE-87" value="return" style="html=1;verticalAlign=bottom;endArrow=open;dashed=1;endSize=8;curved=0;rounded=0;" parent="WIyWlLk6GJQsqaUBKTNV-1" edge="1">
          <mxGeometry relative="1" as="geometry">
            <mxPoint x="821" y="780" as="sourcePoint" />
            <mxPoint x="233" y="780" as="targetPoint" />
          </mxGeometry>
        </mxCell>
        <mxCell id="6cggbh9Jsr4U8usKFyKE-88" value="FrontControllerServletV1 생성자에서&amp;nbsp;&lt;div&gt;&lt;div&gt;MemberController 3개를 controllerMap으로 선언,&amp;nbsp;&lt;span style=&quot;background-color: initial;&quot;&gt;요청이 들어오면&amp;nbsp;&lt;/span&gt;&lt;/div&gt;&lt;/div&gt;&lt;div&gt;&lt;span style=&quot;background-color: initial;&quot;&gt;FrontControllerServletV1 service 메소드에서 해당하는 Controller를 맵핑해 준다&lt;/span&gt;&lt;/div&gt;&lt;div&gt;&lt;span style=&quot;background-color: initial;&quot;&gt;&amp;nbsp;&lt;/span&gt;&lt;/div&gt;&lt;div&gt;&lt;span style=&quot;background-color: initial;&quot;&gt;각각 MemeberController 에서는&amp;nbsp;&lt;/span&gt;&lt;span style=&quot;background-color: initial;&quot;&gt;request.setAttribute 에 리턴값을 담아&lt;/span&gt;&lt;/div&gt;&lt;div&gt;&lt;span style=&quot;background-color: initial;&quot;&gt;RequestDispatcher로 forward 한다&amp;nbsp;&lt;/span&gt;&lt;/div&gt;" style="text;html=1;align=left;verticalAlign=middle;whiteSpace=wrap;rounded=0;" parent="WIyWlLk6GJQsqaUBKTNV-1" vertex="1">
          <mxGeometry x="261" y="695" width="413" height="39" as="geometry" />
        </mxCell>
        <mxCell id="m9w9iHhtk_3FSlBGdYOY-55" value="HttpServlet" style="swimlane;fontStyle=1;align=center;verticalAlign=top;childLayout=stackLayout;horizontal=1;startSize=26;horizontalStack=0;resizeParent=1;resizeParentMax=0;resizeLast=0;collapsible=1;marginBottom=0;whiteSpace=wrap;html=1;" vertex="1" parent="WIyWlLk6GJQsqaUBKTNV-1">
          <mxGeometry x="203" y="366" width="370" height="60" as="geometry" />
        </mxCell>
        <mxCell id="m9w9iHhtk_3FSlBGdYOY-57" value="" style="line;strokeWidth=1;fillColor=none;align=left;verticalAlign=middle;spacingTop=-1;spacingLeft=3;spacingRight=3;rotatable=0;labelPosition=right;points=[];portConstraint=eastwest;strokeColor=inherit;" vertex="1" parent="m9w9iHhtk_3FSlBGdYOY-55">
          <mxGeometry y="26" width="370" height="8" as="geometry" />
        </mxCell>
        <mxCell id="m9w9iHhtk_3FSlBGdYOY-59" value="+ service(HttpServletRequest, HttpServletResponse) : void" style="text;strokeColor=none;fillColor=none;align=left;verticalAlign=top;spacingLeft=4;spacingRight=4;overflow=hidden;rotatable=0;points=[[0,0.5],[1,0.5]];portConstraint=eastwest;whiteSpace=wrap;html=1;" vertex="1" parent="m9w9iHhtk_3FSlBGdYOY-55">
          <mxGeometry y="34" width="370" height="26" as="geometry" />
        </mxCell>
        <mxCell id="m9w9iHhtk_3FSlBGdYOY-61" value="Extends" style="endArrow=block;endSize=16;endFill=0;html=1;rounded=0;" edge="1" parent="m9w9iHhtk_3FSlBGdYOY-55">
          <mxGeometry width="160" relative="1" as="geometry">
            <mxPoint x="176" y="60" as="sourcePoint" />
            <mxPoint x="176" y="117" as="targetPoint" />
          </mxGeometry>
        </mxCell>
        <mxCell id="YiQXatUVnrWXyefSBq0p-0" value="&lt;h1 style=&quot;margin-top: 0px;&quot;&gt;V1: 프론트 컨트롤러를 도입&lt;/h1&gt;&lt;div&gt;&lt;ul&gt;&lt;li&gt;기존 구조를 최대한 유지하면서 프론트 컨트롤러를 도입&lt;/li&gt;&lt;/ul&gt;&lt;/div&gt;&lt;p&gt;&lt;/p&gt;" style="text;html=1;whiteSpace=wrap;overflow=hidden;rounded=0;" vertex="1" parent="WIyWlLk6GJQsqaUBKTNV-1">
          <mxGeometry x="142" y="111" width="485" height="101" as="geometry" />
        </mxCell>
      </root>
    </mxGraphModel>
  </diagram>
  <diagram name="v2" id="xrowLhYP9IsH-8sUrZVo">
    <mxGraphModel dx="1562" dy="1019" grid="0" gridSize="10" guides="1" tooltips="1" connect="1" arrows="1" fold="1" page="1" pageScale="1" pageWidth="827" pageHeight="1169" math="0" shadow="0">
      <root>
        <mxCell id="EXdegNNTs0vk8RMBOalQ-0" />
        <mxCell id="EXdegNNTs0vk8RMBOalQ-1" parent="EXdegNNTs0vk8RMBOalQ-0" />
        <mxCell id="EXdegNNTs0vk8RMBOalQ-29" value="FrontControllerServletV2" style="swimlane;fontStyle=1;align=center;verticalAlign=top;childLayout=stackLayout;horizontal=1;startSize=26;horizontalStack=0;resizeParent=1;resizeParentMax=0;resizeLast=0;collapsible=1;marginBottom=0;whiteSpace=wrap;html=1;" vertex="1" parent="EXdegNNTs0vk8RMBOalQ-1">
          <mxGeometry x="157" y="389" width="370" height="112" as="geometry" />
        </mxCell>
        <mxCell id="EXdegNNTs0vk8RMBOalQ-30" value="&lt;span style=&quot;text-wrap: nowrap;&quot;&gt;- controllerMap : Map&amp;lt;String, ControllerV2&amp;gt;&lt;/span&gt;" style="text;strokeColor=none;fillColor=none;align=left;verticalAlign=top;spacingLeft=4;spacingRight=4;overflow=hidden;rotatable=0;points=[[0,0.5],[1,0.5]];portConstraint=eastwest;whiteSpace=wrap;html=1;" vertex="1" parent="EXdegNNTs0vk8RMBOalQ-29">
          <mxGeometry y="26" width="370" height="26" as="geometry" />
        </mxCell>
        <mxCell id="EXdegNNTs0vk8RMBOalQ-31" value="" style="line;strokeWidth=1;fillColor=none;align=left;verticalAlign=middle;spacingTop=-1;spacingLeft=3;spacingRight=3;rotatable=0;labelPosition=right;points=[];portConstraint=eastwest;strokeColor=inherit;" vertex="1" parent="EXdegNNTs0vk8RMBOalQ-29">
          <mxGeometry y="52" width="370" height="8" as="geometry" />
        </mxCell>
        <mxCell id="EXdegNNTs0vk8RMBOalQ-32" value="&lt;span style=&quot;text-wrap: nowrap;&quot;&gt;+ FrontControllerServletV2()&lt;/span&gt;" style="text;strokeColor=none;fillColor=none;align=left;verticalAlign=top;spacingLeft=4;spacingRight=4;overflow=hidden;rotatable=0;points=[[0,0.5],[1,0.5]];portConstraint=eastwest;whiteSpace=wrap;html=1;" vertex="1" parent="EXdegNNTs0vk8RMBOalQ-29">
          <mxGeometry y="60" width="370" height="26" as="geometry" />
        </mxCell>
        <mxCell id="EXdegNNTs0vk8RMBOalQ-33" value="+ service(HttpServletRequest, HttpServletResponse) : void" style="text;strokeColor=none;fillColor=none;align=left;verticalAlign=top;spacingLeft=4;spacingRight=4;overflow=hidden;rotatable=0;points=[[0,0.5],[1,0.5]];portConstraint=eastwest;whiteSpace=wrap;html=1;" vertex="1" parent="EXdegNNTs0vk8RMBOalQ-29">
          <mxGeometry y="86" width="370" height="26" as="geometry" />
        </mxCell>
        <mxCell id="EXdegNNTs0vk8RMBOalQ-34" value="&lt;p style=&quot;margin:0px;margin-top:4px;text-align:center;&quot;&gt;&lt;i&gt;&amp;lt;&amp;lt;Interface&amp;gt;&amp;gt;&lt;/i&gt;&lt;br&gt;&lt;b&gt;ControllerV2&lt;/b&gt;&lt;/p&gt;&lt;hr size=&quot;1&quot; style=&quot;border-style:solid;&quot;&gt;&lt;p style=&quot;margin:0px;margin-left:4px;&quot;&gt;-&amp;nbsp;&lt;br&gt;&lt;br&gt;&lt;/p&gt;&lt;hr size=&quot;1&quot; style=&quot;border-style:solid;&quot;&gt;&lt;p style=&quot;margin:0px;margin-left:4px;&quot;&gt;+ process(HttpServletRequest, HttpServletResponse): MyView&lt;br&gt;&lt;/p&gt;" style="verticalAlign=top;align=left;overflow=fill;html=1;whiteSpace=wrap;" vertex="1" parent="EXdegNNTs0vk8RMBOalQ-1">
          <mxGeometry x="1122" y="381" width="340" height="110" as="geometry" />
        </mxCell>
        <mxCell id="EXdegNNTs0vk8RMBOalQ-35" value="MemberFormControllerV2" style="swimlane;fontStyle=1;align=center;verticalAlign=top;childLayout=stackLayout;horizontal=1;startSize=26;horizontalStack=0;resizeParent=1;resizeParentMax=0;resizeLast=0;collapsible=1;marginBottom=0;whiteSpace=wrap;html=1;" vertex="1" parent="EXdegNNTs0vk8RMBOalQ-1">
          <mxGeometry x="642" y="279" width="370" height="86" as="geometry" />
        </mxCell>
        <mxCell id="EXdegNNTs0vk8RMBOalQ-36" value="&lt;span style=&quot;text-wrap: nowrap;&quot;&gt;-&amp;nbsp;&lt;/span&gt;" style="text;strokeColor=none;fillColor=none;align=left;verticalAlign=top;spacingLeft=4;spacingRight=4;overflow=hidden;rotatable=0;points=[[0,0.5],[1,0.5]];portConstraint=eastwest;whiteSpace=wrap;html=1;" vertex="1" parent="EXdegNNTs0vk8RMBOalQ-35">
          <mxGeometry y="26" width="370" height="26" as="geometry" />
        </mxCell>
        <mxCell id="EXdegNNTs0vk8RMBOalQ-37" value="" style="line;strokeWidth=1;fillColor=none;align=left;verticalAlign=middle;spacingTop=-1;spacingLeft=3;spacingRight=3;rotatable=0;labelPosition=right;points=[];portConstraint=eastwest;strokeColor=inherit;" vertex="1" parent="EXdegNNTs0vk8RMBOalQ-35">
          <mxGeometry y="52" width="370" height="8" as="geometry" />
        </mxCell>
        <mxCell id="EXdegNNTs0vk8RMBOalQ-38" value="+ process(HttpServletRequest, HttpServletResponse) : MyView" style="text;strokeColor=none;fillColor=none;align=left;verticalAlign=top;spacingLeft=4;spacingRight=4;overflow=hidden;rotatable=0;points=[[0,0.5],[1,0.5]];portConstraint=eastwest;whiteSpace=wrap;html=1;" vertex="1" parent="EXdegNNTs0vk8RMBOalQ-35">
          <mxGeometry y="60" width="370" height="26" as="geometry" />
        </mxCell>
        <mxCell id="EXdegNNTs0vk8RMBOalQ-39" value="MemberListControllerV2" style="swimlane;fontStyle=1;align=center;verticalAlign=top;childLayout=stackLayout;horizontal=1;startSize=26;horizontalStack=0;resizeParent=1;resizeParentMax=0;resizeLast=0;collapsible=1;marginBottom=0;whiteSpace=wrap;html=1;" vertex="1" parent="EXdegNNTs0vk8RMBOalQ-1">
          <mxGeometry x="642" y="389" width="370" height="86" as="geometry" />
        </mxCell>
        <mxCell id="EXdegNNTs0vk8RMBOalQ-40" value="&lt;span style=&quot;text-wrap: nowrap;&quot;&gt;-&amp;nbsp;&lt;/span&gt;" style="text;strokeColor=none;fillColor=none;align=left;verticalAlign=top;spacingLeft=4;spacingRight=4;overflow=hidden;rotatable=0;points=[[0,0.5],[1,0.5]];portConstraint=eastwest;whiteSpace=wrap;html=1;" vertex="1" parent="EXdegNNTs0vk8RMBOalQ-39">
          <mxGeometry y="26" width="370" height="26" as="geometry" />
        </mxCell>
        <mxCell id="EXdegNNTs0vk8RMBOalQ-41" value="" style="line;strokeWidth=1;fillColor=none;align=left;verticalAlign=middle;spacingTop=-1;spacingLeft=3;spacingRight=3;rotatable=0;labelPosition=right;points=[];portConstraint=eastwest;strokeColor=inherit;" vertex="1" parent="EXdegNNTs0vk8RMBOalQ-39">
          <mxGeometry y="52" width="370" height="8" as="geometry" />
        </mxCell>
        <mxCell id="EXdegNNTs0vk8RMBOalQ-42" value="+ process(HttpServletRequest, HttpServletResponse) : MyView" style="text;strokeColor=none;fillColor=none;align=left;verticalAlign=top;spacingLeft=4;spacingRight=4;overflow=hidden;rotatable=0;points=[[0,0.5],[1,0.5]];portConstraint=eastwest;whiteSpace=wrap;html=1;" vertex="1" parent="EXdegNNTs0vk8RMBOalQ-39">
          <mxGeometry y="60" width="370" height="26" as="geometry" />
        </mxCell>
        <mxCell id="EXdegNNTs0vk8RMBOalQ-43" value="MemberSaveControllerV2" style="swimlane;fontStyle=1;align=center;verticalAlign=top;childLayout=stackLayout;horizontal=1;startSize=26;horizontalStack=0;resizeParent=1;resizeParentMax=0;resizeLast=0;collapsible=1;marginBottom=0;whiteSpace=wrap;html=1;" vertex="1" parent="EXdegNNTs0vk8RMBOalQ-1">
          <mxGeometry x="642" y="499" width="370" height="86" as="geometry" />
        </mxCell>
        <mxCell id="EXdegNNTs0vk8RMBOalQ-44" value="&lt;span style=&quot;text-wrap: nowrap;&quot;&gt;-&amp;nbsp;&lt;/span&gt;" style="text;strokeColor=none;fillColor=none;align=left;verticalAlign=top;spacingLeft=4;spacingRight=4;overflow=hidden;rotatable=0;points=[[0,0.5],[1,0.5]];portConstraint=eastwest;whiteSpace=wrap;html=1;" vertex="1" parent="EXdegNNTs0vk8RMBOalQ-43">
          <mxGeometry y="26" width="370" height="26" as="geometry" />
        </mxCell>
        <mxCell id="EXdegNNTs0vk8RMBOalQ-45" value="" style="line;strokeWidth=1;fillColor=none;align=left;verticalAlign=middle;spacingTop=-1;spacingLeft=3;spacingRight=3;rotatable=0;labelPosition=right;points=[];portConstraint=eastwest;strokeColor=inherit;" vertex="1" parent="EXdegNNTs0vk8RMBOalQ-43">
          <mxGeometry y="52" width="370" height="8" as="geometry" />
        </mxCell>
        <mxCell id="EXdegNNTs0vk8RMBOalQ-46" value="+ process(HttpServletRequest, HttpServletResponse) : MyView" style="text;strokeColor=none;fillColor=none;align=left;verticalAlign=top;spacingLeft=4;spacingRight=4;overflow=hidden;rotatable=0;points=[[0,0.5],[1,0.5]];portConstraint=eastwest;whiteSpace=wrap;html=1;" vertex="1" parent="EXdegNNTs0vk8RMBOalQ-43">
          <mxGeometry y="60" width="370" height="26" as="geometry" />
        </mxCell>
        <mxCell id="EXdegNNTs0vk8RMBOalQ-47" value="Use" style="endArrow=open;endSize=12;dashed=1;html=1;rounded=0;entryX=0;entryY=0.25;entryDx=0;entryDy=0;" edge="1" parent="EXdegNNTs0vk8RMBOalQ-1" target="EXdegNNTs0vk8RMBOalQ-35">
          <mxGeometry width="160" relative="1" as="geometry">
            <mxPoint x="531" y="403" as="sourcePoint" />
            <mxPoint x="688" y="433" as="targetPoint" />
          </mxGeometry>
        </mxCell>
        <mxCell id="EXdegNNTs0vk8RMBOalQ-48" value="Use" style="endArrow=open;endSize=12;dashed=1;html=1;rounded=0;entryX=0.005;entryY=0.163;entryDx=0;entryDy=0;entryPerimeter=0;" edge="1" parent="EXdegNNTs0vk8RMBOalQ-1" target="EXdegNNTs0vk8RMBOalQ-39">
          <mxGeometry width="160" relative="1" as="geometry">
            <mxPoint x="529" y="403" as="sourcePoint" />
            <mxPoint x="652" y="362" as="targetPoint" />
          </mxGeometry>
        </mxCell>
        <mxCell id="EXdegNNTs0vk8RMBOalQ-49" value="Use" style="endArrow=open;endSize=12;dashed=1;html=1;rounded=0;entryX=-0.003;entryY=0.14;entryDx=0;entryDy=0;entryPerimeter=0;" edge="1" parent="EXdegNNTs0vk8RMBOalQ-1" target="EXdegNNTs0vk8RMBOalQ-43">
          <mxGeometry width="160" relative="1" as="geometry">
            <mxPoint x="529" y="403" as="sourcePoint" />
            <mxPoint x="642" y="417.5" as="targetPoint" />
          </mxGeometry>
        </mxCell>
        <mxCell id="EXdegNNTs0vk8RMBOalQ-50" value="" style="endArrow=block;startArrow=block;endFill=1;startFill=1;html=1;rounded=0;entryX=0;entryY=0.25;entryDx=0;entryDy=0;" edge="1" parent="EXdegNNTs0vk8RMBOalQ-1" target="EXdegNNTs0vk8RMBOalQ-34">
          <mxGeometry width="160" relative="1" as="geometry">
            <mxPoint x="1013" y="296" as="sourcePoint" />
            <mxPoint x="1169" y="298" as="targetPoint" />
          </mxGeometry>
        </mxCell>
        <mxCell id="EXdegNNTs0vk8RMBOalQ-51" value="" style="endArrow=block;startArrow=block;endFill=1;startFill=1;html=1;rounded=0;entryX=0;entryY=0.25;entryDx=0;entryDy=0;" edge="1" parent="EXdegNNTs0vk8RMBOalQ-1" target="EXdegNNTs0vk8RMBOalQ-34">
          <mxGeometry width="160" relative="1" as="geometry">
            <mxPoint x="1012" y="407" as="sourcePoint" />
            <mxPoint x="1101" y="508" as="targetPoint" />
          </mxGeometry>
        </mxCell>
        <mxCell id="EXdegNNTs0vk8RMBOalQ-52" value="Implements" style="edgeLabel;html=1;align=center;verticalAlign=middle;resizable=0;points=[];" vertex="1" connectable="0" parent="EXdegNNTs0vk8RMBOalQ-51">
          <mxGeometry x="-0.0181" relative="1" as="geometry">
            <mxPoint as="offset" />
          </mxGeometry>
        </mxCell>
        <mxCell id="EXdegNNTs0vk8RMBOalQ-53" value="" style="endArrow=block;startArrow=block;endFill=1;startFill=1;html=1;rounded=0;entryX=0;entryY=0.25;entryDx=0;entryDy=0;" edge="1" parent="EXdegNNTs0vk8RMBOalQ-1" target="EXdegNNTs0vk8RMBOalQ-34">
          <mxGeometry width="160" relative="1" as="geometry">
            <mxPoint x="1012" y="514" as="sourcePoint" />
            <mxPoint x="1102" y="504" as="targetPoint" />
          </mxGeometry>
        </mxCell>
        <mxCell id="EXdegNNTs0vk8RMBOalQ-54" value="Implements" style="edgeLabel;html=1;align=center;verticalAlign=middle;resizable=0;points=[];" vertex="1" connectable="0" parent="EXdegNNTs0vk8RMBOalQ-1">
          <mxGeometry x="1063.00498003893" y="351.99629518234906" as="geometry" />
        </mxCell>
        <mxCell id="EXdegNNTs0vk8RMBOalQ-55" value="Implements" style="edgeLabel;html=1;align=center;verticalAlign=middle;resizable=0;points=[];" vertex="1" connectable="0" parent="EXdegNNTs0vk8RMBOalQ-1">
          <mxGeometry x="1063.00498003893" y="460.99629518234906" as="geometry" />
        </mxCell>
        <mxCell id="EXdegNNTs0vk8RMBOalQ-56" value="MyView" style="swimlane;fontStyle=1;align=center;verticalAlign=top;childLayout=stackLayout;horizontal=1;startSize=26;horizontalStack=0;resizeParent=1;resizeParentMax=0;resizeLast=0;collapsible=1;marginBottom=0;whiteSpace=wrap;html=1;" vertex="1" parent="EXdegNNTs0vk8RMBOalQ-1">
          <mxGeometry x="1122" y="585" width="448" height="164" as="geometry" />
        </mxCell>
        <mxCell id="EXdegNNTs0vk8RMBOalQ-57" value="&lt;span style=&quot;text-wrap: nowrap;&quot;&gt;- viewPath: String&lt;/span&gt;" style="text;strokeColor=none;fillColor=none;align=left;verticalAlign=top;spacingLeft=4;spacingRight=4;overflow=hidden;rotatable=0;points=[[0,0.5],[1,0.5]];portConstraint=eastwest;whiteSpace=wrap;html=1;" vertex="1" parent="EXdegNNTs0vk8RMBOalQ-56">
          <mxGeometry y="26" width="448" height="26" as="geometry" />
        </mxCell>
        <mxCell id="EXdegNNTs0vk8RMBOalQ-58" value="" style="line;strokeWidth=1;fillColor=none;align=left;verticalAlign=middle;spacingTop=-1;spacingLeft=3;spacingRight=3;rotatable=0;labelPosition=right;points=[];portConstraint=eastwest;strokeColor=inherit;" vertex="1" parent="EXdegNNTs0vk8RMBOalQ-56">
          <mxGeometry y="52" width="448" height="8" as="geometry" />
        </mxCell>
        <mxCell id="EXdegNNTs0vk8RMBOalQ-59" value="+ MyView(viewPath)" style="text;strokeColor=none;fillColor=none;align=left;verticalAlign=top;spacingLeft=4;spacingRight=4;overflow=hidden;rotatable=0;points=[[0,0.5],[1,0.5]];portConstraint=eastwest;whiteSpace=wrap;html=1;" vertex="1" parent="EXdegNNTs0vk8RMBOalQ-56">
          <mxGeometry y="60" width="448" height="26" as="geometry" />
        </mxCell>
        <mxCell id="EXdegNNTs0vk8RMBOalQ-60" value="+ render(HttpServletRequest, HttpServletResponse)&amp;nbsp;" style="text;strokeColor=none;fillColor=none;align=left;verticalAlign=top;spacingLeft=4;spacingRight=4;overflow=hidden;rotatable=0;points=[[0,0.5],[1,0.5]];portConstraint=eastwest;whiteSpace=wrap;html=1;" vertex="1" parent="EXdegNNTs0vk8RMBOalQ-56">
          <mxGeometry y="86" width="448" height="26" as="geometry" />
        </mxCell>
        <mxCell id="EXdegNNTs0vk8RMBOalQ-61" value="+ render(Map&amp;lt;String, Object&amp;gt; model, HttpServletRequest, HttpServletResponse)" style="text;strokeColor=none;fillColor=none;align=left;verticalAlign=top;spacingLeft=4;spacingRight=4;overflow=hidden;rotatable=0;points=[[0,0.5],[1,0.5]];portConstraint=eastwest;whiteSpace=wrap;html=1;" vertex="1" parent="EXdegNNTs0vk8RMBOalQ-56">
          <mxGeometry y="112" width="448" height="26" as="geometry" />
        </mxCell>
        <mxCell id="EXdegNNTs0vk8RMBOalQ-62" value="+ modelToRequestAttribute(Map&amp;lt;String, Object&amp;gt; model, HttpServletRequest)" style="text;strokeColor=none;fillColor=none;align=left;verticalAlign=top;spacingLeft=4;spacingRight=4;overflow=hidden;rotatable=0;points=[[0,0.5],[1,0.5]];portConstraint=eastwest;whiteSpace=wrap;html=1;" vertex="1" parent="EXdegNNTs0vk8RMBOalQ-56">
          <mxGeometry y="138" width="448" height="26" as="geometry" />
        </mxCell>
        <mxCell id="EXdegNNTs0vk8RMBOalQ-63" value="Use" style="endArrow=open;endSize=12;dashed=1;html=1;rounded=0;exitX=0.5;exitY=1;exitDx=0;exitDy=0;" edge="1" parent="EXdegNNTs0vk8RMBOalQ-1" source="EXdegNNTs0vk8RMBOalQ-34">
          <mxGeometry width="160" relative="1" as="geometry">
            <mxPoint x="1306" y="521" as="sourcePoint" />
            <mxPoint x="1295" y="586" as="targetPoint" />
          </mxGeometry>
        </mxCell>
        <mxCell id="EXdegNNTs0vk8RMBOalQ-64" value="return" style="html=1;verticalAlign=bottom;endArrow=open;dashed=1;endSize=8;curved=0;rounded=0;" edge="1" parent="EXdegNNTs0vk8RMBOalQ-1">
          <mxGeometry relative="1" as="geometry">
            <mxPoint x="813" y="755" as="sourcePoint" />
            <mxPoint x="225" y="755" as="targetPoint" />
          </mxGeometry>
        </mxCell>
        <mxCell id="EXdegNNTs0vk8RMBOalQ-67" value="FrontControllerServletV2 생성자에서&amp;nbsp;&lt;div&gt;&lt;div&gt;MemberController 3개를 controllerMap으로 선언,&amp;nbsp;&lt;span style=&quot;background-color: initial;&quot;&gt;요청이 들어오면&amp;nbsp;&lt;/span&gt;&lt;/div&gt;&lt;/div&gt;&lt;div&gt;&lt;span style=&quot;background-color: initial;&quot;&gt;FrontControllerServletV2 service 메소드에서 해당하는 Controller를 맵핑해 주고&amp;nbsp;&lt;/span&gt;&lt;/div&gt;&lt;div&gt;&lt;span style=&quot;background-color: initial;&quot;&gt;각각 MemeberController&amp;nbsp; 에서는 리턴값을&amp;nbsp;&lt;/span&gt;&lt;span style=&quot;background-color: initial;&quot;&gt;request.setAttribute에 담아&amp;nbsp;&lt;/span&gt;&lt;/div&gt;&lt;div&gt;&lt;span style=&quot;background-color: initial;&quot;&gt;MyView로&amp;nbsp;&lt;/span&gt;&lt;span style=&quot;background-color: initial;&quot;&gt;리턴한다.&lt;/span&gt;&lt;/div&gt;&lt;div&gt;&lt;span style=&quot;background-color: initial;&quot;&gt;&lt;br&gt;&lt;/span&gt;&lt;/div&gt;&lt;div&gt;&lt;span style=&quot;background-color: initial;&quot;&gt;MyView render 메서드 에서는 객체 생성시 파라메터로 받은 viewPath를 &lt;/span&gt;&lt;span style=&quot;background-color: initial;&quot;&gt;RequestDispatcher로 forward 한다&amp;nbsp;&lt;/span&gt;&lt;/div&gt;" style="text;html=1;align=left;verticalAlign=middle;whiteSpace=wrap;rounded=0;" vertex="1" parent="EXdegNNTs0vk8RMBOalQ-1">
          <mxGeometry x="233" y="645" width="419" height="39" as="geometry" />
        </mxCell>
        <mxCell id="EXdegNNTs0vk8RMBOalQ-184" value="HttpServlet" style="swimlane;fontStyle=1;align=center;verticalAlign=top;childLayout=stackLayout;horizontal=1;startSize=26;horizontalStack=0;resizeParent=1;resizeParentMax=0;resizeLast=0;collapsible=1;marginBottom=0;whiteSpace=wrap;html=1;" vertex="1" parent="EXdegNNTs0vk8RMBOalQ-1">
          <mxGeometry x="154" y="272" width="370" height="60" as="geometry" />
        </mxCell>
        <mxCell id="EXdegNNTs0vk8RMBOalQ-185" value="" style="line;strokeWidth=1;fillColor=none;align=left;verticalAlign=middle;spacingTop=-1;spacingLeft=3;spacingRight=3;rotatable=0;labelPosition=right;points=[];portConstraint=eastwest;strokeColor=inherit;" vertex="1" parent="EXdegNNTs0vk8RMBOalQ-184">
          <mxGeometry y="26" width="370" height="8" as="geometry" />
        </mxCell>
        <mxCell id="EXdegNNTs0vk8RMBOalQ-186" value="+ service(HttpServletRequest, HttpServletResponse) : void" style="text;strokeColor=none;fillColor=none;align=left;verticalAlign=top;spacingLeft=4;spacingRight=4;overflow=hidden;rotatable=0;points=[[0,0.5],[1,0.5]];portConstraint=eastwest;whiteSpace=wrap;html=1;" vertex="1" parent="EXdegNNTs0vk8RMBOalQ-184">
          <mxGeometry y="34" width="370" height="26" as="geometry" />
        </mxCell>
        <mxCell id="EXdegNNTs0vk8RMBOalQ-187" value="Extends" style="endArrow=block;endSize=16;endFill=0;html=1;rounded=0;" edge="1" parent="EXdegNNTs0vk8RMBOalQ-184">
          <mxGeometry width="160" relative="1" as="geometry">
            <mxPoint x="176" y="60" as="sourcePoint" />
            <mxPoint x="176" y="117" as="targetPoint" />
          </mxGeometry>
        </mxCell>
        <mxCell id="HzH4-7CR06kvKQugcbH9-0" value="&lt;h1 style=&quot;margin-top: 0px;&quot;&gt;V2: View 분류&lt;/h1&gt;&lt;div&gt;&lt;ul&gt;&lt;li&gt;단순 반복 되는 뷰 로직 분리&lt;/li&gt;&lt;/ul&gt;&lt;/div&gt;&lt;p&gt;&lt;/p&gt;" style="text;html=1;whiteSpace=wrap;overflow=hidden;rounded=0;" vertex="1" parent="EXdegNNTs0vk8RMBOalQ-1">
          <mxGeometry x="103" y="63" width="485" height="101" as="geometry" />
        </mxCell>
      </root>
    </mxGraphModel>
  </diagram>
  <diagram name="v3" id="2olU-XvpfqG4A80prPC4">
    <mxGraphModel dx="1562" dy="-150" grid="0" gridSize="10" guides="1" tooltips="1" connect="1" arrows="1" fold="1" page="1" pageScale="1" pageWidth="827" pageHeight="1169" math="0" shadow="0">
      <root>
        <mxCell id="hLMoGPFoKOyHj7F62Qll-0" />
        <mxCell id="hLMoGPFoKOyHj7F62Qll-1" parent="hLMoGPFoKOyHj7F62Qll-0" />
        <mxCell id="hLMoGPFoKOyHj7F62Qll-68" value="FrontControllerServletV3" style="swimlane;fontStyle=1;align=center;verticalAlign=top;childLayout=stackLayout;horizontal=1;startSize=26;horizontalStack=0;resizeParent=1;resizeParentMax=0;resizeLast=0;collapsible=1;marginBottom=0;whiteSpace=wrap;html=1;" vertex="1" parent="hLMoGPFoKOyHj7F62Qll-1">
          <mxGeometry x="88" y="1590" width="473" height="164" as="geometry" />
        </mxCell>
        <mxCell id="hLMoGPFoKOyHj7F62Qll-69" value="&lt;span style=&quot;text-wrap: nowrap;&quot;&gt;- controllerMap : Map&amp;lt;String, ControllerV3&amp;gt;&lt;/span&gt;" style="text;strokeColor=none;fillColor=none;align=left;verticalAlign=top;spacingLeft=4;spacingRight=4;overflow=hidden;rotatable=0;points=[[0,0.5],[1,0.5]];portConstraint=eastwest;whiteSpace=wrap;html=1;" vertex="1" parent="hLMoGPFoKOyHj7F62Qll-68">
          <mxGeometry y="26" width="473" height="26" as="geometry" />
        </mxCell>
        <mxCell id="hLMoGPFoKOyHj7F62Qll-70" value="" style="line;strokeWidth=1;fillColor=none;align=left;verticalAlign=middle;spacingTop=-1;spacingLeft=3;spacingRight=3;rotatable=0;labelPosition=right;points=[];portConstraint=eastwest;strokeColor=inherit;" vertex="1" parent="hLMoGPFoKOyHj7F62Qll-68">
          <mxGeometry y="52" width="473" height="8" as="geometry" />
        </mxCell>
        <mxCell id="hLMoGPFoKOyHj7F62Qll-71" value="&lt;span style=&quot;text-wrap: nowrap;&quot;&gt;+ FrontControllerServletV3()&lt;/span&gt;" style="text;strokeColor=none;fillColor=none;align=left;verticalAlign=top;spacingLeft=4;spacingRight=4;overflow=hidden;rotatable=0;points=[[0,0.5],[1,0.5]];portConstraint=eastwest;whiteSpace=wrap;html=1;" vertex="1" parent="hLMoGPFoKOyHj7F62Qll-68">
          <mxGeometry y="60" width="473" height="26" as="geometry" />
        </mxCell>
        <mxCell id="hLMoGPFoKOyHj7F62Qll-72" value="+ service(HttpServletRequest, HttpServletResponse) : void" style="text;strokeColor=none;fillColor=none;align=left;verticalAlign=top;spacingLeft=4;spacingRight=4;overflow=hidden;rotatable=0;points=[[0,0.5],[1,0.5]];portConstraint=eastwest;whiteSpace=wrap;html=1;" vertex="1" parent="hLMoGPFoKOyHj7F62Qll-68">
          <mxGeometry y="86" width="473" height="26" as="geometry" />
        </mxCell>
        <mxCell id="hLMoGPFoKOyHj7F62Qll-73" value="+ viewResolver(String viewName) : MyView" style="text;strokeColor=none;fillColor=none;align=left;verticalAlign=top;spacingLeft=4;spacingRight=4;overflow=hidden;rotatable=0;points=[[0,0.5],[1,0.5]];portConstraint=eastwest;whiteSpace=wrap;html=1;" vertex="1" parent="hLMoGPFoKOyHj7F62Qll-68">
          <mxGeometry y="112" width="473" height="26" as="geometry" />
        </mxCell>
        <mxCell id="hLMoGPFoKOyHj7F62Qll-74" value="+ createParamMap(HttpServletRequest, HttpServletResponse)&amp;nbsp;: Map&amp;lt;String, String&amp;gt;" style="text;strokeColor=none;fillColor=none;align=left;verticalAlign=top;spacingLeft=4;spacingRight=4;overflow=hidden;rotatable=0;points=[[0,0.5],[1,0.5]];portConstraint=eastwest;whiteSpace=wrap;html=1;" vertex="1" parent="hLMoGPFoKOyHj7F62Qll-68">
          <mxGeometry y="138" width="473" height="26" as="geometry" />
        </mxCell>
        <mxCell id="hLMoGPFoKOyHj7F62Qll-75" value="&lt;p style=&quot;margin:0px;margin-top:4px;text-align:center;&quot;&gt;&lt;i&gt;&amp;lt;&amp;lt;Interface&amp;gt;&amp;gt;&lt;/i&gt;&lt;br&gt;&lt;b&gt;ControllerV3&lt;/b&gt;&lt;/p&gt;&lt;hr size=&quot;1&quot; style=&quot;border-style:solid;&quot;&gt;&lt;p style=&quot;margin:0px;margin-left:4px;&quot;&gt;-&amp;nbsp;&lt;br&gt;&lt;br&gt;&lt;/p&gt;&lt;hr size=&quot;1&quot; style=&quot;border-style:solid;&quot;&gt;&lt;p style=&quot;margin:0px;margin-left:4px;&quot;&gt;+ process(HttpServletRequest, HttpServletResponse): ModelView&lt;br&gt;&lt;/p&gt;" style="verticalAlign=top;align=left;overflow=fill;html=1;whiteSpace=wrap;" vertex="1" parent="hLMoGPFoKOyHj7F62Qll-1">
          <mxGeometry x="1154" y="1584" width="372" height="110" as="geometry" />
        </mxCell>
        <mxCell id="hLMoGPFoKOyHj7F62Qll-76" value="MemberFormControllerV3" style="swimlane;fontStyle=1;align=center;verticalAlign=top;childLayout=stackLayout;horizontal=1;startSize=26;horizontalStack=0;resizeParent=1;resizeParentMax=0;resizeLast=0;collapsible=1;marginBottom=0;whiteSpace=wrap;html=1;" vertex="1" parent="hLMoGPFoKOyHj7F62Qll-1">
          <mxGeometry x="674" y="1482" width="370" height="86" as="geometry" />
        </mxCell>
        <mxCell id="hLMoGPFoKOyHj7F62Qll-77" value="&lt;span style=&quot;text-wrap: nowrap;&quot;&gt;-&amp;nbsp;&lt;/span&gt;" style="text;strokeColor=none;fillColor=none;align=left;verticalAlign=top;spacingLeft=4;spacingRight=4;overflow=hidden;rotatable=0;points=[[0,0.5],[1,0.5]];portConstraint=eastwest;whiteSpace=wrap;html=1;" vertex="1" parent="hLMoGPFoKOyHj7F62Qll-76">
          <mxGeometry y="26" width="370" height="26" as="geometry" />
        </mxCell>
        <mxCell id="hLMoGPFoKOyHj7F62Qll-78" value="" style="line;strokeWidth=1;fillColor=none;align=left;verticalAlign=middle;spacingTop=-1;spacingLeft=3;spacingRight=3;rotatable=0;labelPosition=right;points=[];portConstraint=eastwest;strokeColor=inherit;" vertex="1" parent="hLMoGPFoKOyHj7F62Qll-76">
          <mxGeometry y="52" width="370" height="8" as="geometry" />
        </mxCell>
        <mxCell id="hLMoGPFoKOyHj7F62Qll-79" value="+ process(HttpServletRequest, HttpServletResponse) : ModelView" style="text;strokeColor=none;fillColor=none;align=left;verticalAlign=top;spacingLeft=4;spacingRight=4;overflow=hidden;rotatable=0;points=[[0,0.5],[1,0.5]];portConstraint=eastwest;whiteSpace=wrap;html=1;" vertex="1" parent="hLMoGPFoKOyHj7F62Qll-76">
          <mxGeometry y="60" width="370" height="26" as="geometry" />
        </mxCell>
        <mxCell id="hLMoGPFoKOyHj7F62Qll-80" value="MemberListControllerV3" style="swimlane;fontStyle=1;align=center;verticalAlign=top;childLayout=stackLayout;horizontal=1;startSize=26;horizontalStack=0;resizeParent=1;resizeParentMax=0;resizeLast=0;collapsible=1;marginBottom=0;whiteSpace=wrap;html=1;" vertex="1" parent="hLMoGPFoKOyHj7F62Qll-1">
          <mxGeometry x="674" y="1592" width="370" height="86" as="geometry" />
        </mxCell>
        <mxCell id="hLMoGPFoKOyHj7F62Qll-81" value="&lt;span style=&quot;text-wrap: nowrap;&quot;&gt;-&amp;nbsp;&lt;/span&gt;" style="text;strokeColor=none;fillColor=none;align=left;verticalAlign=top;spacingLeft=4;spacingRight=4;overflow=hidden;rotatable=0;points=[[0,0.5],[1,0.5]];portConstraint=eastwest;whiteSpace=wrap;html=1;" vertex="1" parent="hLMoGPFoKOyHj7F62Qll-80">
          <mxGeometry y="26" width="370" height="26" as="geometry" />
        </mxCell>
        <mxCell id="hLMoGPFoKOyHj7F62Qll-82" value="" style="line;strokeWidth=1;fillColor=none;align=left;verticalAlign=middle;spacingTop=-1;spacingLeft=3;spacingRight=3;rotatable=0;labelPosition=right;points=[];portConstraint=eastwest;strokeColor=inherit;" vertex="1" parent="hLMoGPFoKOyHj7F62Qll-80">
          <mxGeometry y="52" width="370" height="8" as="geometry" />
        </mxCell>
        <mxCell id="hLMoGPFoKOyHj7F62Qll-83" value="+ process(HttpServletRequest, HttpServletResponse) : ModelView" style="text;strokeColor=none;fillColor=none;align=left;verticalAlign=top;spacingLeft=4;spacingRight=4;overflow=hidden;rotatable=0;points=[[0,0.5],[1,0.5]];portConstraint=eastwest;whiteSpace=wrap;html=1;" vertex="1" parent="hLMoGPFoKOyHj7F62Qll-80">
          <mxGeometry y="60" width="370" height="26" as="geometry" />
        </mxCell>
        <mxCell id="hLMoGPFoKOyHj7F62Qll-84" value="MemberSaveControllerV3" style="swimlane;fontStyle=1;align=center;verticalAlign=top;childLayout=stackLayout;horizontal=1;startSize=26;horizontalStack=0;resizeParent=1;resizeParentMax=0;resizeLast=0;collapsible=1;marginBottom=0;whiteSpace=wrap;html=1;" vertex="1" parent="hLMoGPFoKOyHj7F62Qll-1">
          <mxGeometry x="674" y="1702" width="370" height="86" as="geometry" />
        </mxCell>
        <mxCell id="hLMoGPFoKOyHj7F62Qll-85" value="&lt;span style=&quot;text-wrap: nowrap;&quot;&gt;-&amp;nbsp;&lt;/span&gt;" style="text;strokeColor=none;fillColor=none;align=left;verticalAlign=top;spacingLeft=4;spacingRight=4;overflow=hidden;rotatable=0;points=[[0,0.5],[1,0.5]];portConstraint=eastwest;whiteSpace=wrap;html=1;" vertex="1" parent="hLMoGPFoKOyHj7F62Qll-84">
          <mxGeometry y="26" width="370" height="26" as="geometry" />
        </mxCell>
        <mxCell id="hLMoGPFoKOyHj7F62Qll-86" value="" style="line;strokeWidth=1;fillColor=none;align=left;verticalAlign=middle;spacingTop=-1;spacingLeft=3;spacingRight=3;rotatable=0;labelPosition=right;points=[];portConstraint=eastwest;strokeColor=inherit;" vertex="1" parent="hLMoGPFoKOyHj7F62Qll-84">
          <mxGeometry y="52" width="370" height="8" as="geometry" />
        </mxCell>
        <mxCell id="hLMoGPFoKOyHj7F62Qll-87" value="+ process(HttpServletRequest, HttpServletResponse) : ModelView" style="text;strokeColor=none;fillColor=none;align=left;verticalAlign=top;spacingLeft=4;spacingRight=4;overflow=hidden;rotatable=0;points=[[0,0.5],[1,0.5]];portConstraint=eastwest;whiteSpace=wrap;html=1;" vertex="1" parent="hLMoGPFoKOyHj7F62Qll-84">
          <mxGeometry y="60" width="370" height="26" as="geometry" />
        </mxCell>
        <mxCell id="hLMoGPFoKOyHj7F62Qll-88" value="Use" style="endArrow=open;endSize=12;dashed=1;html=1;rounded=0;entryX=0;entryY=0.25;entryDx=0;entryDy=0;" edge="1" parent="hLMoGPFoKOyHj7F62Qll-1" target="hLMoGPFoKOyHj7F62Qll-76">
          <mxGeometry width="160" relative="1" as="geometry">
            <mxPoint x="563" y="1606" as="sourcePoint" />
            <mxPoint x="720" y="1636" as="targetPoint" />
          </mxGeometry>
        </mxCell>
        <mxCell id="hLMoGPFoKOyHj7F62Qll-89" value="Use" style="endArrow=open;endSize=12;dashed=1;html=1;rounded=0;entryX=0.005;entryY=0.163;entryDx=0;entryDy=0;entryPerimeter=0;" edge="1" parent="hLMoGPFoKOyHj7F62Qll-1" target="hLMoGPFoKOyHj7F62Qll-80">
          <mxGeometry width="160" relative="1" as="geometry">
            <mxPoint x="561" y="1606" as="sourcePoint" />
            <mxPoint x="684" y="1565" as="targetPoint" />
          </mxGeometry>
        </mxCell>
        <mxCell id="hLMoGPFoKOyHj7F62Qll-90" value="Use" style="endArrow=open;endSize=12;dashed=1;html=1;rounded=0;entryX=-0.003;entryY=0.14;entryDx=0;entryDy=0;entryPerimeter=0;" edge="1" parent="hLMoGPFoKOyHj7F62Qll-1" target="hLMoGPFoKOyHj7F62Qll-84">
          <mxGeometry width="160" relative="1" as="geometry">
            <mxPoint x="561" y="1606" as="sourcePoint" />
            <mxPoint x="674" y="1620.5" as="targetPoint" />
          </mxGeometry>
        </mxCell>
        <mxCell id="hLMoGPFoKOyHj7F62Qll-91" value="" style="endArrow=block;startArrow=block;endFill=1;startFill=1;html=1;rounded=0;entryX=0;entryY=0.25;entryDx=0;entryDy=0;" edge="1" parent="hLMoGPFoKOyHj7F62Qll-1" target="hLMoGPFoKOyHj7F62Qll-75">
          <mxGeometry width="160" relative="1" as="geometry">
            <mxPoint x="1045" y="1499" as="sourcePoint" />
            <mxPoint x="1201" y="1501" as="targetPoint" />
          </mxGeometry>
        </mxCell>
        <mxCell id="hLMoGPFoKOyHj7F62Qll-92" value="" style="endArrow=block;startArrow=block;endFill=1;startFill=1;html=1;rounded=0;entryX=0;entryY=0.25;entryDx=0;entryDy=0;" edge="1" parent="hLMoGPFoKOyHj7F62Qll-1" target="hLMoGPFoKOyHj7F62Qll-75">
          <mxGeometry width="160" relative="1" as="geometry">
            <mxPoint x="1044" y="1610" as="sourcePoint" />
            <mxPoint x="1133" y="1711" as="targetPoint" />
          </mxGeometry>
        </mxCell>
        <mxCell id="hLMoGPFoKOyHj7F62Qll-93" value="Implements" style="edgeLabel;html=1;align=center;verticalAlign=middle;resizable=0;points=[];" vertex="1" connectable="0" parent="hLMoGPFoKOyHj7F62Qll-92">
          <mxGeometry x="-0.0181" relative="1" as="geometry">
            <mxPoint as="offset" />
          </mxGeometry>
        </mxCell>
        <mxCell id="hLMoGPFoKOyHj7F62Qll-94" value="" style="endArrow=block;startArrow=block;endFill=1;startFill=1;html=1;rounded=0;entryX=0;entryY=0.25;entryDx=0;entryDy=0;" edge="1" parent="hLMoGPFoKOyHj7F62Qll-1" target="hLMoGPFoKOyHj7F62Qll-75">
          <mxGeometry width="160" relative="1" as="geometry">
            <mxPoint x="1044" y="1717" as="sourcePoint" />
            <mxPoint x="1134" y="1707" as="targetPoint" />
          </mxGeometry>
        </mxCell>
        <mxCell id="hLMoGPFoKOyHj7F62Qll-95" value="Implements" style="edgeLabel;html=1;align=center;verticalAlign=middle;resizable=0;points=[];" vertex="1" connectable="0" parent="hLMoGPFoKOyHj7F62Qll-1">
          <mxGeometry x="1095.00498003893" y="1554.996295182349" as="geometry" />
        </mxCell>
        <mxCell id="hLMoGPFoKOyHj7F62Qll-96" value="Implements" style="edgeLabel;html=1;align=center;verticalAlign=middle;resizable=0;points=[];" vertex="1" connectable="0" parent="hLMoGPFoKOyHj7F62Qll-1">
          <mxGeometry x="1095.00498003893" y="1663.996295182349" as="geometry" />
        </mxCell>
        <mxCell id="hLMoGPFoKOyHj7F62Qll-97" value="ModelVIew" style="swimlane;fontStyle=1;align=center;verticalAlign=top;childLayout=stackLayout;horizontal=1;startSize=26;horizontalStack=0;resizeParent=1;resizeParentMax=0;resizeLast=0;collapsible=1;marginBottom=0;whiteSpace=wrap;html=1;" vertex="1" parent="hLMoGPFoKOyHj7F62Qll-1">
          <mxGeometry x="1154" y="1788" width="448" height="112" as="geometry" />
        </mxCell>
        <mxCell id="hLMoGPFoKOyHj7F62Qll-98" value="&lt;span style=&quot;text-wrap: nowrap;&quot;&gt;- viewName: String&lt;/span&gt;" style="text;strokeColor=none;fillColor=none;align=left;verticalAlign=top;spacingLeft=4;spacingRight=4;overflow=hidden;rotatable=0;points=[[0,0.5],[1,0.5]];portConstraint=eastwest;whiteSpace=wrap;html=1;" vertex="1" parent="hLMoGPFoKOyHj7F62Qll-97">
          <mxGeometry y="26" width="448" height="26" as="geometry" />
        </mxCell>
        <mxCell id="hLMoGPFoKOyHj7F62Qll-99" value="- model : Map&amp;lt;String, Object&amp;gt;" style="text;strokeColor=none;fillColor=none;align=left;verticalAlign=top;spacingLeft=4;spacingRight=4;overflow=hidden;rotatable=0;points=[[0,0.5],[1,0.5]];portConstraint=eastwest;whiteSpace=wrap;html=1;" vertex="1" parent="hLMoGPFoKOyHj7F62Qll-97">
          <mxGeometry y="52" width="448" height="26" as="geometry" />
        </mxCell>
        <mxCell id="hLMoGPFoKOyHj7F62Qll-100" value="" style="line;strokeWidth=1;fillColor=none;align=left;verticalAlign=middle;spacingTop=-1;spacingLeft=3;spacingRight=3;rotatable=0;labelPosition=right;points=[];portConstraint=eastwest;strokeColor=inherit;" vertex="1" parent="hLMoGPFoKOyHj7F62Qll-97">
          <mxGeometry y="78" width="448" height="8" as="geometry" />
        </mxCell>
        <mxCell id="hLMoGPFoKOyHj7F62Qll-101" value="+ ModelView(viewName)" style="text;strokeColor=none;fillColor=none;align=left;verticalAlign=top;spacingLeft=4;spacingRight=4;overflow=hidden;rotatable=0;points=[[0,0.5],[1,0.5]];portConstraint=eastwest;whiteSpace=wrap;html=1;" vertex="1" parent="hLMoGPFoKOyHj7F62Qll-97">
          <mxGeometry y="86" width="448" height="26" as="geometry" />
        </mxCell>
        <mxCell id="hLMoGPFoKOyHj7F62Qll-102" value="return" style="html=1;verticalAlign=bottom;endArrow=open;dashed=1;endSize=8;curved=0;rounded=0;" edge="1" parent="hLMoGPFoKOyHj7F62Qll-1">
          <mxGeometry relative="1" as="geometry">
            <mxPoint x="757" y="1957" as="sourcePoint" />
            <mxPoint x="169" y="1957" as="targetPoint" />
          </mxGeometry>
        </mxCell>
        <mxCell id="hLMoGPFoKOyHj7F62Qll-103" value="FrontControllerServletV3 생성자에서&amp;nbsp;&lt;div&gt;&lt;div&gt;MemberController 3개를 controllerMap으로 선언,&amp;nbsp;&lt;span style=&quot;background-color: initial;&quot;&gt;요청이 들어오면&amp;nbsp;&lt;/span&gt;&lt;/div&gt;&lt;/div&gt;&lt;div&gt;&lt;span style=&quot;background-color: initial;&quot;&gt;FrontControllerServletV3 service 메소드에서 해당하는 Controller를 맵핑해 주고&lt;/span&gt;&lt;/div&gt;&lt;div&gt;&lt;span style=&quot;background-color: initial;&quot;&gt;request로 받은 파라메터를 같이 넘겨준다.&amp;nbsp;&lt;/span&gt;&lt;/div&gt;&lt;div&gt;&lt;span style=&quot;background-color: initial;&quot;&gt;각각 MemeberController 에서는 ModelView를 리턴한다.&lt;/span&gt;&lt;/div&gt;&lt;div&gt;&lt;span style=&quot;background-color: initial;&quot;&gt;ModelView에 model과 viewName으로&amp;nbsp;&lt;/span&gt;&lt;/div&gt;&lt;div&gt;&lt;span style=&quot;background-color: initial;&quot;&gt;viewResolver를 메서드를 통해 MyView를 리턴받는다&lt;/span&gt;&lt;/div&gt;&lt;div&gt;&lt;br&gt;&lt;/div&gt;&lt;div&gt;&lt;span style=&quot;background-color: initial;&quot;&gt;MyView render 메서드로 model과 같이&amp;nbsp;&amp;nbsp;&lt;/span&gt;&lt;span style=&quot;background-color: initial;&quot;&gt;RequestDispatcher로 forward 한다&amp;nbsp;&lt;/span&gt;&lt;/div&gt;" style="text;html=1;align=left;verticalAlign=middle;whiteSpace=wrap;rounded=0;" vertex="1" parent="hLMoGPFoKOyHj7F62Qll-1">
          <mxGeometry x="172" y="1845" width="419" height="39" as="geometry" />
        </mxCell>
        <mxCell id="hLMoGPFoKOyHj7F62Qll-104" value="Use" style="endArrow=open;endSize=12;dashed=1;html=1;rounded=0;entryX=0.415;entryY=0;entryDx=0;entryDy=0;entryPerimeter=0;" edge="1" parent="hLMoGPFoKOyHj7F62Qll-1" target="hLMoGPFoKOyHj7F62Qll-97">
          <mxGeometry width="160" relative="1" as="geometry">
            <mxPoint x="1339" y="1694" as="sourcePoint" />
            <mxPoint x="1333" y="1775" as="targetPoint" />
          </mxGeometry>
        </mxCell>
        <mxCell id="hLMoGPFoKOyHj7F62Qll-188" value="HttpServlet" style="swimlane;fontStyle=1;align=center;verticalAlign=top;childLayout=stackLayout;horizontal=1;startSize=26;horizontalStack=0;resizeParent=1;resizeParentMax=0;resizeLast=0;collapsible=1;marginBottom=0;whiteSpace=wrap;html=1;" vertex="1" parent="hLMoGPFoKOyHj7F62Qll-1">
          <mxGeometry x="88" y="1473" width="370" height="60" as="geometry" />
        </mxCell>
        <mxCell id="hLMoGPFoKOyHj7F62Qll-189" value="" style="line;strokeWidth=1;fillColor=none;align=left;verticalAlign=middle;spacingTop=-1;spacingLeft=3;spacingRight=3;rotatable=0;labelPosition=right;points=[];portConstraint=eastwest;strokeColor=inherit;" vertex="1" parent="hLMoGPFoKOyHj7F62Qll-188">
          <mxGeometry y="26" width="370" height="8" as="geometry" />
        </mxCell>
        <mxCell id="hLMoGPFoKOyHj7F62Qll-190" value="+ service(HttpServletRequest, HttpServletResponse) : void" style="text;strokeColor=none;fillColor=none;align=left;verticalAlign=top;spacingLeft=4;spacingRight=4;overflow=hidden;rotatable=0;points=[[0,0.5],[1,0.5]];portConstraint=eastwest;whiteSpace=wrap;html=1;" vertex="1" parent="hLMoGPFoKOyHj7F62Qll-188">
          <mxGeometry y="34" width="370" height="26" as="geometry" />
        </mxCell>
        <mxCell id="hLMoGPFoKOyHj7F62Qll-191" value="Extends" style="endArrow=block;endSize=16;endFill=0;html=1;rounded=0;" edge="1" parent="hLMoGPFoKOyHj7F62Qll-188">
          <mxGeometry width="160" relative="1" as="geometry">
            <mxPoint x="176" y="60" as="sourcePoint" />
            <mxPoint x="176" y="117" as="targetPoint" />
          </mxGeometry>
        </mxCell>
        <mxCell id="9YJfpP4IDwN-5XbFa9fH-0" value="&lt;h1 style=&quot;margin-top: 0px;&quot;&gt;V3: Model 추가&lt;/h1&gt;&lt;div&gt;&lt;ul&gt;&lt;li&gt;서블릿 종속성 제거&lt;/li&gt;&lt;li&gt;뷰 이름 중복 제거&lt;/li&gt;&lt;/ul&gt;&lt;/div&gt;&lt;p&gt;&lt;/p&gt;" style="text;html=1;whiteSpace=wrap;overflow=hidden;rounded=0;" vertex="1" parent="hLMoGPFoKOyHj7F62Qll-1">
          <mxGeometry x="59" y="1233" width="485" height="101" as="geometry" />
        </mxCell>
      </root>
    </mxGraphModel>
  </diagram>
  <diagram name="v4" id="dHL6ZNX5yjjXs34B47gU">
    <mxGraphModel dx="1562" dy="-150" grid="0" gridSize="10" guides="1" tooltips="1" connect="1" arrows="1" fold="1" page="1" pageScale="1" pageWidth="827" pageHeight="1169" math="0" shadow="0">
      <root>
        <mxCell id="KztbRzptdreoVoytc7fV-0" />
        <mxCell id="KztbRzptdreoVoytc7fV-1" parent="KztbRzptdreoVoytc7fV-0" />
        <mxCell id="KztbRzptdreoVoytc7fV-105" value="FrontControllerServletV4" style="swimlane;fontStyle=1;align=center;verticalAlign=top;childLayout=stackLayout;horizontal=1;startSize=26;horizontalStack=0;resizeParent=1;resizeParentMax=0;resizeLast=0;collapsible=1;marginBottom=0;whiteSpace=wrap;html=1;" vertex="1" parent="KztbRzptdreoVoytc7fV-1">
          <mxGeometry x="35" y="1590" width="473" height="164" as="geometry" />
        </mxCell>
        <mxCell id="KztbRzptdreoVoytc7fV-106" value="&lt;span style=&quot;text-wrap: nowrap;&quot;&gt;- controllerMap : Map&amp;lt;String, ControllerV4&amp;gt;&lt;/span&gt;" style="text;strokeColor=none;fillColor=none;align=left;verticalAlign=top;spacingLeft=4;spacingRight=4;overflow=hidden;rotatable=0;points=[[0,0.5],[1,0.5]];portConstraint=eastwest;whiteSpace=wrap;html=1;" vertex="1" parent="KztbRzptdreoVoytc7fV-105">
          <mxGeometry y="26" width="473" height="26" as="geometry" />
        </mxCell>
        <mxCell id="KztbRzptdreoVoytc7fV-107" value="" style="line;strokeWidth=1;fillColor=none;align=left;verticalAlign=middle;spacingTop=-1;spacingLeft=3;spacingRight=3;rotatable=0;labelPosition=right;points=[];portConstraint=eastwest;strokeColor=inherit;" vertex="1" parent="KztbRzptdreoVoytc7fV-105">
          <mxGeometry y="52" width="473" height="8" as="geometry" />
        </mxCell>
        <mxCell id="KztbRzptdreoVoytc7fV-108" value="&lt;span style=&quot;text-wrap: nowrap;&quot;&gt;+ FrontControllerServletV4()&lt;/span&gt;" style="text;strokeColor=none;fillColor=none;align=left;verticalAlign=top;spacingLeft=4;spacingRight=4;overflow=hidden;rotatable=0;points=[[0,0.5],[1,0.5]];portConstraint=eastwest;whiteSpace=wrap;html=1;" vertex="1" parent="KztbRzptdreoVoytc7fV-105">
          <mxGeometry y="60" width="473" height="26" as="geometry" />
        </mxCell>
        <mxCell id="KztbRzptdreoVoytc7fV-109" value="+ service(HttpServletRequest, HttpServletResponse) : void" style="text;strokeColor=none;fillColor=none;align=left;verticalAlign=top;spacingLeft=4;spacingRight=4;overflow=hidden;rotatable=0;points=[[0,0.5],[1,0.5]];portConstraint=eastwest;whiteSpace=wrap;html=1;" vertex="1" parent="KztbRzptdreoVoytc7fV-105">
          <mxGeometry y="86" width="473" height="26" as="geometry" />
        </mxCell>
        <mxCell id="KztbRzptdreoVoytc7fV-110" value="+ viewResolver(String viewName) : MyView" style="text;strokeColor=none;fillColor=none;align=left;verticalAlign=top;spacingLeft=4;spacingRight=4;overflow=hidden;rotatable=0;points=[[0,0.5],[1,0.5]];portConstraint=eastwest;whiteSpace=wrap;html=1;" vertex="1" parent="KztbRzptdreoVoytc7fV-105">
          <mxGeometry y="112" width="473" height="26" as="geometry" />
        </mxCell>
        <mxCell id="KztbRzptdreoVoytc7fV-111" value="+ createParamMap(HttpServletRequest, HttpServletResponse)&amp;nbsp;: Map&amp;lt;String, String&amp;gt;" style="text;strokeColor=none;fillColor=none;align=left;verticalAlign=top;spacingLeft=4;spacingRight=4;overflow=hidden;rotatable=0;points=[[0,0.5],[1,0.5]];portConstraint=eastwest;whiteSpace=wrap;html=1;" vertex="1" parent="KztbRzptdreoVoytc7fV-105">
          <mxGeometry y="138" width="473" height="26" as="geometry" />
        </mxCell>
        <mxCell id="KztbRzptdreoVoytc7fV-112" value="&lt;p style=&quot;margin:0px;margin-top:4px;text-align:center;&quot;&gt;&lt;i&gt;&amp;lt;&amp;lt;Interface&amp;gt;&amp;gt;&lt;/i&gt;&lt;br&gt;&lt;b&gt;ControllerV4&lt;/b&gt;&lt;/p&gt;&lt;hr size=&quot;1&quot; style=&quot;border-style:solid;&quot;&gt;&lt;p style=&quot;margin:0px;margin-left:4px;&quot;&gt;-&amp;nbsp;&lt;br&gt;&lt;br&gt;&lt;/p&gt;&lt;hr size=&quot;1&quot; style=&quot;border-style:solid;&quot;&gt;&lt;p style=&quot;margin:0px;margin-left:4px;&quot;&gt;+ process(Map&amp;lt;String, String&amp;gt; paramMap, Map&amp;lt;String, Object&amp;gt; model): String&lt;br&gt;&lt;/p&gt;" style="verticalAlign=top;align=left;overflow=fill;html=1;whiteSpace=wrap;" vertex="1" parent="KztbRzptdreoVoytc7fV-1">
          <mxGeometry x="1184" y="1582" width="435" height="110" as="geometry" />
        </mxCell>
        <mxCell id="KztbRzptdreoVoytc7fV-113" value="MemberFormControllerV4" style="swimlane;fontStyle=1;align=center;verticalAlign=top;childLayout=stackLayout;horizontal=1;startSize=26;horizontalStack=0;resizeParent=1;resizeParentMax=0;resizeLast=0;collapsible=1;marginBottom=0;whiteSpace=wrap;html=1;" vertex="1" parent="KztbRzptdreoVoytc7fV-1">
          <mxGeometry x="621" y="1482" width="453" height="86" as="geometry" />
        </mxCell>
        <mxCell id="KztbRzptdreoVoytc7fV-114" value="&lt;span style=&quot;text-wrap: nowrap;&quot;&gt;-&amp;nbsp;&lt;/span&gt;" style="text;strokeColor=none;fillColor=none;align=left;verticalAlign=top;spacingLeft=4;spacingRight=4;overflow=hidden;rotatable=0;points=[[0,0.5],[1,0.5]];portConstraint=eastwest;whiteSpace=wrap;html=1;" vertex="1" parent="KztbRzptdreoVoytc7fV-113">
          <mxGeometry y="26" width="453" height="26" as="geometry" />
        </mxCell>
        <mxCell id="KztbRzptdreoVoytc7fV-115" value="" style="line;strokeWidth=1;fillColor=none;align=left;verticalAlign=middle;spacingTop=-1;spacingLeft=3;spacingRight=3;rotatable=0;labelPosition=right;points=[];portConstraint=eastwest;strokeColor=inherit;" vertex="1" parent="KztbRzptdreoVoytc7fV-113">
          <mxGeometry y="52" width="453" height="8" as="geometry" />
        </mxCell>
        <mxCell id="KztbRzptdreoVoytc7fV-116" value="+ process(Map&amp;lt;String, String&amp;gt; paramMap, Map&amp;lt;String, Object&amp;gt; model) : String" style="text;strokeColor=none;fillColor=none;align=left;verticalAlign=top;spacingLeft=4;spacingRight=4;overflow=hidden;rotatable=0;points=[[0,0.5],[1,0.5]];portConstraint=eastwest;whiteSpace=wrap;html=1;" vertex="1" parent="KztbRzptdreoVoytc7fV-113">
          <mxGeometry y="60" width="453" height="26" as="geometry" />
        </mxCell>
        <mxCell id="KztbRzptdreoVoytc7fV-117" value="MemberListControllerV4" style="swimlane;fontStyle=1;align=center;verticalAlign=top;childLayout=stackLayout;horizontal=1;startSize=26;horizontalStack=0;resizeParent=1;resizeParentMax=0;resizeLast=0;collapsible=1;marginBottom=0;whiteSpace=wrap;html=1;" vertex="1" parent="KztbRzptdreoVoytc7fV-1">
          <mxGeometry x="621" y="1592" width="454" height="86" as="geometry" />
        </mxCell>
        <mxCell id="KztbRzptdreoVoytc7fV-118" value="&lt;span style=&quot;text-wrap: nowrap;&quot;&gt;-&amp;nbsp;&lt;/span&gt;" style="text;strokeColor=none;fillColor=none;align=left;verticalAlign=top;spacingLeft=4;spacingRight=4;overflow=hidden;rotatable=0;points=[[0,0.5],[1,0.5]];portConstraint=eastwest;whiteSpace=wrap;html=1;" vertex="1" parent="KztbRzptdreoVoytc7fV-117">
          <mxGeometry y="26" width="454" height="26" as="geometry" />
        </mxCell>
        <mxCell id="KztbRzptdreoVoytc7fV-119" value="" style="line;strokeWidth=1;fillColor=none;align=left;verticalAlign=middle;spacingTop=-1;spacingLeft=3;spacingRight=3;rotatable=0;labelPosition=right;points=[];portConstraint=eastwest;strokeColor=inherit;" vertex="1" parent="KztbRzptdreoVoytc7fV-117">
          <mxGeometry y="52" width="454" height="8" as="geometry" />
        </mxCell>
        <mxCell id="KztbRzptdreoVoytc7fV-120" value="+ process(Map&amp;lt;String, String&amp;gt; paramMap, Map&amp;lt;String, Object&amp;gt; model) : String" style="text;strokeColor=none;fillColor=none;align=left;verticalAlign=top;spacingLeft=4;spacingRight=4;overflow=hidden;rotatable=0;points=[[0,0.5],[1,0.5]];portConstraint=eastwest;whiteSpace=wrap;html=1;" vertex="1" parent="KztbRzptdreoVoytc7fV-117">
          <mxGeometry y="60" width="454" height="26" as="geometry" />
        </mxCell>
        <mxCell id="KztbRzptdreoVoytc7fV-121" value="MemberSaveControllerV4" style="swimlane;fontStyle=1;align=center;verticalAlign=top;childLayout=stackLayout;horizontal=1;startSize=26;horizontalStack=0;resizeParent=1;resizeParentMax=0;resizeLast=0;collapsible=1;marginBottom=0;whiteSpace=wrap;html=1;" vertex="1" parent="KztbRzptdreoVoytc7fV-1">
          <mxGeometry x="621" y="1702" width="455" height="86" as="geometry" />
        </mxCell>
        <mxCell id="KztbRzptdreoVoytc7fV-122" value="&lt;span style=&quot;text-wrap: nowrap;&quot;&gt;-&amp;nbsp;&lt;/span&gt;" style="text;strokeColor=none;fillColor=none;align=left;verticalAlign=top;spacingLeft=4;spacingRight=4;overflow=hidden;rotatable=0;points=[[0,0.5],[1,0.5]];portConstraint=eastwest;whiteSpace=wrap;html=1;" vertex="1" parent="KztbRzptdreoVoytc7fV-121">
          <mxGeometry y="26" width="455" height="26" as="geometry" />
        </mxCell>
        <mxCell id="KztbRzptdreoVoytc7fV-123" value="" style="line;strokeWidth=1;fillColor=none;align=left;verticalAlign=middle;spacingTop=-1;spacingLeft=3;spacingRight=3;rotatable=0;labelPosition=right;points=[];portConstraint=eastwest;strokeColor=inherit;" vertex="1" parent="KztbRzptdreoVoytc7fV-121">
          <mxGeometry y="52" width="455" height="8" as="geometry" />
        </mxCell>
        <mxCell id="KztbRzptdreoVoytc7fV-124" value="+ process(Map&amp;lt;String, String&amp;gt; paramMap, Map&amp;lt;String, Object&amp;gt; model) : String" style="text;strokeColor=none;fillColor=none;align=left;verticalAlign=top;spacingLeft=4;spacingRight=4;overflow=hidden;rotatable=0;points=[[0,0.5],[1,0.5]];portConstraint=eastwest;whiteSpace=wrap;html=1;" vertex="1" parent="KztbRzptdreoVoytc7fV-121">
          <mxGeometry y="60" width="455" height="26" as="geometry" />
        </mxCell>
        <mxCell id="KztbRzptdreoVoytc7fV-125" value="Use" style="endArrow=open;endSize=12;dashed=1;html=1;rounded=0;entryX=0;entryY=0.25;entryDx=0;entryDy=0;" edge="1" parent="KztbRzptdreoVoytc7fV-1" target="KztbRzptdreoVoytc7fV-113">
          <mxGeometry width="160" relative="1" as="geometry">
            <mxPoint x="510" y="1606" as="sourcePoint" />
            <mxPoint x="667" y="1636" as="targetPoint" />
          </mxGeometry>
        </mxCell>
        <mxCell id="KztbRzptdreoVoytc7fV-126" value="Use" style="endArrow=open;endSize=12;dashed=1;html=1;rounded=0;entryX=0.005;entryY=0.163;entryDx=0;entryDy=0;entryPerimeter=0;" edge="1" parent="KztbRzptdreoVoytc7fV-1" target="KztbRzptdreoVoytc7fV-117">
          <mxGeometry width="160" relative="1" as="geometry">
            <mxPoint x="508" y="1606" as="sourcePoint" />
            <mxPoint x="631" y="1565" as="targetPoint" />
          </mxGeometry>
        </mxCell>
        <mxCell id="KztbRzptdreoVoytc7fV-127" value="Use" style="endArrow=open;endSize=12;dashed=1;html=1;rounded=0;entryX=-0.003;entryY=0.14;entryDx=0;entryDy=0;entryPerimeter=0;" edge="1" parent="KztbRzptdreoVoytc7fV-1" target="KztbRzptdreoVoytc7fV-121">
          <mxGeometry width="160" relative="1" as="geometry">
            <mxPoint x="508" y="1606" as="sourcePoint" />
            <mxPoint x="621" y="1620.5" as="targetPoint" />
          </mxGeometry>
        </mxCell>
        <mxCell id="KztbRzptdreoVoytc7fV-128" value="" style="endArrow=block;startArrow=block;endFill=1;startFill=1;html=1;rounded=0;entryX=0;entryY=0.25;entryDx=0;entryDy=0;" edge="1" parent="KztbRzptdreoVoytc7fV-1" target="KztbRzptdreoVoytc7fV-112">
          <mxGeometry width="160" relative="1" as="geometry">
            <mxPoint x="1075" y="1497" as="sourcePoint" />
            <mxPoint x="1231" y="1499" as="targetPoint" />
          </mxGeometry>
        </mxCell>
        <mxCell id="KztbRzptdreoVoytc7fV-129" value="" style="endArrow=block;startArrow=block;endFill=1;startFill=1;html=1;rounded=0;entryX=0;entryY=0.25;entryDx=0;entryDy=0;" edge="1" parent="KztbRzptdreoVoytc7fV-1" target="KztbRzptdreoVoytc7fV-112">
          <mxGeometry width="160" relative="1" as="geometry">
            <mxPoint x="1074" y="1608" as="sourcePoint" />
            <mxPoint x="1163" y="1709" as="targetPoint" />
          </mxGeometry>
        </mxCell>
        <mxCell id="KztbRzptdreoVoytc7fV-130" value="Implements" style="edgeLabel;html=1;align=center;verticalAlign=middle;resizable=0;points=[];" vertex="1" connectable="0" parent="KztbRzptdreoVoytc7fV-129">
          <mxGeometry x="-0.0181" relative="1" as="geometry">
            <mxPoint as="offset" />
          </mxGeometry>
        </mxCell>
        <mxCell id="KztbRzptdreoVoytc7fV-131" value="" style="endArrow=block;startArrow=block;endFill=1;startFill=1;html=1;rounded=0;entryX=0;entryY=0.25;entryDx=0;entryDy=0;" edge="1" parent="KztbRzptdreoVoytc7fV-1" target="KztbRzptdreoVoytc7fV-112">
          <mxGeometry width="160" relative="1" as="geometry">
            <mxPoint x="1074" y="1715" as="sourcePoint" />
            <mxPoint x="1164" y="1705" as="targetPoint" />
          </mxGeometry>
        </mxCell>
        <mxCell id="KztbRzptdreoVoytc7fV-132" value="Implements" style="edgeLabel;html=1;align=center;verticalAlign=middle;resizable=0;points=[];" vertex="1" connectable="0" parent="KztbRzptdreoVoytc7fV-1">
          <mxGeometry x="1125.00498003893" y="1552.996295182349" as="geometry" />
        </mxCell>
        <mxCell id="KztbRzptdreoVoytc7fV-133" value="Implements" style="edgeLabel;html=1;align=center;verticalAlign=middle;resizable=0;points=[];" vertex="1" connectable="0" parent="KztbRzptdreoVoytc7fV-1">
          <mxGeometry x="1125.00498003893" y="1661.996295182349" as="geometry" />
        </mxCell>
        <mxCell id="KztbRzptdreoVoytc7fV-134" value="return" style="html=1;verticalAlign=bottom;endArrow=open;dashed=1;endSize=8;curved=0;rounded=0;" edge="1" parent="KztbRzptdreoVoytc7fV-1">
          <mxGeometry relative="1" as="geometry">
            <mxPoint x="691" y="1943" as="sourcePoint" />
            <mxPoint x="103" y="1943" as="targetPoint" />
          </mxGeometry>
        </mxCell>
        <mxCell id="KztbRzptdreoVoytc7fV-135" value="FrontControllerServletV4 생성자에서&amp;nbsp;&lt;div&gt;&lt;div&gt;MemberController 3개를 controllerMap으로 선언,&amp;nbsp;&lt;span style=&quot;background-color: initial;&quot;&gt;요청이 들어오면&amp;nbsp;&lt;/span&gt;&lt;/div&gt;&lt;/div&gt;&lt;div&gt;&lt;span style=&quot;background-color: initial;&quot;&gt;FrontControllerServletV4 service 메소드에서 해당하는 Controller를 맵핑해 주고&amp;nbsp;&lt;/span&gt;&lt;/div&gt;&lt;div&gt;request로 받은 파라메터와 리턴받을 model을&amp;nbsp; 같이 넘겨준다.&amp;nbsp;&lt;span style=&quot;background-color: initial;&quot;&gt;&lt;br&gt;&lt;/span&gt;&lt;/div&gt;&lt;div&gt;&lt;span style=&quot;background-color: initial;&quot;&gt;각각 MemeberController 에서는 String viewName, model에 리턴값을 담아 리턴한다.&lt;/span&gt;&lt;/div&gt;&lt;div&gt;&lt;span style=&quot;background-color: initial;&quot;&gt;viewName으로&amp;nbsp;&lt;/span&gt;&lt;span style=&quot;background-color: initial;&quot;&gt;viewResolver를 메서드를 통해 MyView를 리턴받는다&lt;/span&gt;&lt;/div&gt;&lt;div&gt;&lt;br&gt;&lt;/div&gt;&lt;div&gt;&lt;span style=&quot;background-color: initial;&quot;&gt;MyView render 메서드로 model과 같이&amp;nbsp;&amp;nbsp;&lt;/span&gt;&lt;span style=&quot;background-color: initial;&quot;&gt;RequestDispatcher로 forward 한다&amp;nbsp;&lt;/span&gt;&lt;/div&gt;" style="text;html=1;align=left;verticalAlign=middle;whiteSpace=wrap;rounded=0;" vertex="1" parent="KztbRzptdreoVoytc7fV-1">
          <mxGeometry x="108" y="1850" width="470" height="39" as="geometry" />
        </mxCell>
        <mxCell id="KztbRzptdreoVoytc7fV-192" value="HttpServlet" style="swimlane;fontStyle=1;align=center;verticalAlign=top;childLayout=stackLayout;horizontal=1;startSize=26;horizontalStack=0;resizeParent=1;resizeParentMax=0;resizeLast=0;collapsible=1;marginBottom=0;whiteSpace=wrap;html=1;" vertex="1" parent="KztbRzptdreoVoytc7fV-1">
          <mxGeometry x="35" y="1473" width="370" height="60" as="geometry" />
        </mxCell>
        <mxCell id="KztbRzptdreoVoytc7fV-193" value="" style="line;strokeWidth=1;fillColor=none;align=left;verticalAlign=middle;spacingTop=-1;spacingLeft=3;spacingRight=3;rotatable=0;labelPosition=right;points=[];portConstraint=eastwest;strokeColor=inherit;" vertex="1" parent="KztbRzptdreoVoytc7fV-192">
          <mxGeometry y="26" width="370" height="8" as="geometry" />
        </mxCell>
        <mxCell id="KztbRzptdreoVoytc7fV-194" value="+ service(HttpServletRequest, HttpServletResponse) : void" style="text;strokeColor=none;fillColor=none;align=left;verticalAlign=top;spacingLeft=4;spacingRight=4;overflow=hidden;rotatable=0;points=[[0,0.5],[1,0.5]];portConstraint=eastwest;whiteSpace=wrap;html=1;" vertex="1" parent="KztbRzptdreoVoytc7fV-192">
          <mxGeometry y="34" width="370" height="26" as="geometry" />
        </mxCell>
        <mxCell id="KztbRzptdreoVoytc7fV-195" value="Extends" style="endArrow=block;endSize=16;endFill=0;html=1;rounded=0;" edge="1" parent="KztbRzptdreoVoytc7fV-192">
          <mxGeometry width="160" relative="1" as="geometry">
            <mxPoint x="176" y="60" as="sourcePoint" />
            <mxPoint x="176" y="117" as="targetPoint" />
          </mxGeometry>
        </mxCell>
        <mxCell id="JiWxk9OVAjLOiF6Og1YI-0" value="&lt;h1 style=&quot;margin-top: 0px;&quot;&gt;V4: 단순하고 실용적인 컨트롤러&lt;/h1&gt;&lt;div&gt;&lt;ul&gt;&lt;li&gt;v3와 거의 비슷&lt;/li&gt;&lt;li&gt;구현 입장에서 ModelView를 직접 생성해서 반환하지 않도록 편리한 인터페이스 제공&lt;/li&gt;&lt;/ul&gt;&lt;/div&gt;&lt;p&gt;&lt;/p&gt;" style="text;html=1;whiteSpace=wrap;overflow=hidden;rounded=0;" vertex="1" parent="KztbRzptdreoVoytc7fV-1">
          <mxGeometry x="59" y="1233" width="485" height="101" as="geometry" />
        </mxCell>
      </root>
    </mxGraphModel>
  </diagram>
  <diagram name="v5" id="I29Q6XQZJHDYOrEXl811">
    <mxGraphModel dx="1562" dy="-1319" grid="0" gridSize="10" guides="1" tooltips="1" connect="1" arrows="1" fold="1" page="1" pageScale="1" pageWidth="827" pageHeight="1169" math="0" shadow="0">
      <root>
        <mxCell id="0f5Nf56xRpMQTxweZ_RM-0" />
        <mxCell id="0f5Nf56xRpMQTxweZ_RM-1" parent="0f5Nf56xRpMQTxweZ_RM-0" />
        <mxCell id="0f5Nf56xRpMQTxweZ_RM-136" value="FrontControllerServletV5" style="swimlane;fontStyle=1;align=center;verticalAlign=top;childLayout=stackLayout;horizontal=1;startSize=26;horizontalStack=0;resizeParent=1;resizeParentMax=0;resizeLast=0;collapsible=1;marginBottom=0;whiteSpace=wrap;html=1;" vertex="1" parent="0f5Nf56xRpMQTxweZ_RM-1">
          <mxGeometry x="176" y="2842" width="473" height="242" as="geometry" />
        </mxCell>
        <mxCell id="0f5Nf56xRpMQTxweZ_RM-137" value="&lt;span style=&quot;text-wrap: nowrap;&quot;&gt;- handlerMappingMap : Map&amp;lt;String, Object&amp;gt;&lt;/span&gt;" style="text;strokeColor=none;fillColor=none;align=left;verticalAlign=top;spacingLeft=4;spacingRight=4;overflow=hidden;rotatable=0;points=[[0,0.5],[1,0.5]];portConstraint=eastwest;whiteSpace=wrap;html=1;" vertex="1" parent="0f5Nf56xRpMQTxweZ_RM-136">
          <mxGeometry y="26" width="473" height="26" as="geometry" />
        </mxCell>
        <mxCell id="0f5Nf56xRpMQTxweZ_RM-138" value="- handlerAdapters : List&amp;lt;MyhandlerAdapter&amp;gt;" style="text;strokeColor=none;fillColor=none;align=left;verticalAlign=top;spacingLeft=4;spacingRight=4;overflow=hidden;rotatable=0;points=[[0,0.5],[1,0.5]];portConstraint=eastwest;whiteSpace=wrap;html=1;" vertex="1" parent="0f5Nf56xRpMQTxweZ_RM-136">
          <mxGeometry y="52" width="473" height="26" as="geometry" />
        </mxCell>
        <mxCell id="0f5Nf56xRpMQTxweZ_RM-139" value="" style="line;strokeWidth=1;fillColor=none;align=left;verticalAlign=middle;spacingTop=-1;spacingLeft=3;spacingRight=3;rotatable=0;labelPosition=right;points=[];portConstraint=eastwest;strokeColor=inherit;" vertex="1" parent="0f5Nf56xRpMQTxweZ_RM-136">
          <mxGeometry y="78" width="473" height="8" as="geometry" />
        </mxCell>
        <mxCell id="0f5Nf56xRpMQTxweZ_RM-140" value="&lt;span style=&quot;text-wrap: nowrap;&quot;&gt;+ FrontControllerServletV5()&lt;/span&gt;" style="text;strokeColor=none;fillColor=none;align=left;verticalAlign=top;spacingLeft=4;spacingRight=4;overflow=hidden;rotatable=0;points=[[0,0.5],[1,0.5]];portConstraint=eastwest;whiteSpace=wrap;html=1;" vertex="1" parent="0f5Nf56xRpMQTxweZ_RM-136">
          <mxGeometry y="86" width="473" height="26" as="geometry" />
        </mxCell>
        <mxCell id="0f5Nf56xRpMQTxweZ_RM-141" value="+ initHandlerMappingMap() : void" style="text;strokeColor=none;fillColor=none;align=left;verticalAlign=top;spacingLeft=4;spacingRight=4;overflow=hidden;rotatable=0;points=[[0,0.5],[1,0.5]];portConstraint=eastwest;whiteSpace=wrap;html=1;" vertex="1" parent="0f5Nf56xRpMQTxweZ_RM-136">
          <mxGeometry y="112" width="473" height="26" as="geometry" />
        </mxCell>
        <mxCell id="0f5Nf56xRpMQTxweZ_RM-142" value="+ initHandlerAdapters() : void" style="text;strokeColor=none;fillColor=none;align=left;verticalAlign=top;spacingLeft=4;spacingRight=4;overflow=hidden;rotatable=0;points=[[0,0.5],[1,0.5]];portConstraint=eastwest;whiteSpace=wrap;html=1;" vertex="1" parent="0f5Nf56xRpMQTxweZ_RM-136">
          <mxGeometry y="138" width="473" height="26" as="geometry" />
        </mxCell>
        <mxCell id="0f5Nf56xRpMQTxweZ_RM-143" value="+ service(HttpServletRequest, HttpServletResponse) : void" style="text;strokeColor=none;fillColor=none;align=left;verticalAlign=top;spacingLeft=4;spacingRight=4;overflow=hidden;rotatable=0;points=[[0,0.5],[1,0.5]];portConstraint=eastwest;whiteSpace=wrap;html=1;" vertex="1" parent="0f5Nf56xRpMQTxweZ_RM-136">
          <mxGeometry y="164" width="473" height="26" as="geometry" />
        </mxCell>
        <mxCell id="0f5Nf56xRpMQTxweZ_RM-144" value="+ getHandler(HttpServletRequest)&amp;nbsp;: Object" style="text;strokeColor=none;fillColor=none;align=left;verticalAlign=top;spacingLeft=4;spacingRight=4;overflow=hidden;rotatable=0;points=[[0,0.5],[1,0.5]];portConstraint=eastwest;whiteSpace=wrap;html=1;" vertex="1" parent="0f5Nf56xRpMQTxweZ_RM-136">
          <mxGeometry y="190" width="473" height="26" as="geometry" />
        </mxCell>
        <mxCell id="0f5Nf56xRpMQTxweZ_RM-145" value="+ getHandlerAdapter(Object handler) : MyHandlerAdapter" style="text;strokeColor=none;fillColor=none;align=left;verticalAlign=top;spacingLeft=4;spacingRight=4;overflow=hidden;rotatable=0;points=[[0,0.5],[1,0.5]];portConstraint=eastwest;whiteSpace=wrap;html=1;" vertex="1" parent="0f5Nf56xRpMQTxweZ_RM-136">
          <mxGeometry y="216" width="473" height="26" as="geometry" />
        </mxCell>
        <mxCell id="0f5Nf56xRpMQTxweZ_RM-146" value="&lt;p style=&quot;margin:0px;margin-top:4px;text-align:center;&quot;&gt;&lt;i&gt;&amp;lt;&amp;lt;Interface&amp;gt;&amp;gt;&lt;/i&gt;&lt;br&gt;&lt;b&gt;ControllerV4&lt;/b&gt;&lt;/p&gt;&lt;hr size=&quot;1&quot; style=&quot;border-style:solid;&quot;&gt;&lt;p style=&quot;margin:0px;margin-left:4px;&quot;&gt;-&amp;nbsp;&lt;br&gt;&lt;br&gt;&lt;/p&gt;&lt;hr size=&quot;1&quot; style=&quot;border-style:solid;&quot;&gt;&lt;p style=&quot;margin:0px;margin-left:4px;&quot;&gt;+ process(HttpServletRequest, HttpServletResponse): String&lt;br&gt;&lt;/p&gt;" style="verticalAlign=top;align=left;overflow=fill;html=1;whiteSpace=wrap;" vertex="1" parent="0f5Nf56xRpMQTxweZ_RM-1">
          <mxGeometry x="1390" y="3286" width="382" height="110" as="geometry" />
        </mxCell>
        <mxCell id="0f5Nf56xRpMQTxweZ_RM-147" value="MemberFormControllerV4" style="swimlane;fontStyle=1;align=center;verticalAlign=top;childLayout=stackLayout;horizontal=1;startSize=26;horizontalStack=0;resizeParent=1;resizeParentMax=0;resizeLast=0;collapsible=1;marginBottom=0;whiteSpace=wrap;html=1;" vertex="1" parent="0f5Nf56xRpMQTxweZ_RM-1">
          <mxGeometry x="827" y="3186" width="453" height="86" as="geometry" />
        </mxCell>
        <mxCell id="0f5Nf56xRpMQTxweZ_RM-148" value="&lt;span style=&quot;text-wrap: nowrap;&quot;&gt;-&amp;nbsp;&lt;/span&gt;" style="text;strokeColor=none;fillColor=none;align=left;verticalAlign=top;spacingLeft=4;spacingRight=4;overflow=hidden;rotatable=0;points=[[0,0.5],[1,0.5]];portConstraint=eastwest;whiteSpace=wrap;html=1;" vertex="1" parent="0f5Nf56xRpMQTxweZ_RM-147">
          <mxGeometry y="26" width="453" height="26" as="geometry" />
        </mxCell>
        <mxCell id="0f5Nf56xRpMQTxweZ_RM-149" value="" style="line;strokeWidth=1;fillColor=none;align=left;verticalAlign=middle;spacingTop=-1;spacingLeft=3;spacingRight=3;rotatable=0;labelPosition=right;points=[];portConstraint=eastwest;strokeColor=inherit;" vertex="1" parent="0f5Nf56xRpMQTxweZ_RM-147">
          <mxGeometry y="52" width="453" height="8" as="geometry" />
        </mxCell>
        <mxCell id="0f5Nf56xRpMQTxweZ_RM-150" value="+ process(HttpServletRequest, HttpServletResponse) : String" style="text;strokeColor=none;fillColor=none;align=left;verticalAlign=top;spacingLeft=4;spacingRight=4;overflow=hidden;rotatable=0;points=[[0,0.5],[1,0.5]];portConstraint=eastwest;whiteSpace=wrap;html=1;" vertex="1" parent="0f5Nf56xRpMQTxweZ_RM-147">
          <mxGeometry y="60" width="453" height="26" as="geometry" />
        </mxCell>
        <mxCell id="0f5Nf56xRpMQTxweZ_RM-151" value="MemberListControllerV4" style="swimlane;fontStyle=1;align=center;verticalAlign=top;childLayout=stackLayout;horizontal=1;startSize=26;horizontalStack=0;resizeParent=1;resizeParentMax=0;resizeLast=0;collapsible=1;marginBottom=0;whiteSpace=wrap;html=1;" vertex="1" parent="0f5Nf56xRpMQTxweZ_RM-1">
          <mxGeometry x="827" y="3296" width="454" height="86" as="geometry" />
        </mxCell>
        <mxCell id="0f5Nf56xRpMQTxweZ_RM-152" value="&lt;span style=&quot;text-wrap: nowrap;&quot;&gt;-&amp;nbsp;&lt;/span&gt;" style="text;strokeColor=none;fillColor=none;align=left;verticalAlign=top;spacingLeft=4;spacingRight=4;overflow=hidden;rotatable=0;points=[[0,0.5],[1,0.5]];portConstraint=eastwest;whiteSpace=wrap;html=1;" vertex="1" parent="0f5Nf56xRpMQTxweZ_RM-151">
          <mxGeometry y="26" width="454" height="26" as="geometry" />
        </mxCell>
        <mxCell id="0f5Nf56xRpMQTxweZ_RM-153" value="" style="line;strokeWidth=1;fillColor=none;align=left;verticalAlign=middle;spacingTop=-1;spacingLeft=3;spacingRight=3;rotatable=0;labelPosition=right;points=[];portConstraint=eastwest;strokeColor=inherit;" vertex="1" parent="0f5Nf56xRpMQTxweZ_RM-151">
          <mxGeometry y="52" width="454" height="8" as="geometry" />
        </mxCell>
        <mxCell id="0f5Nf56xRpMQTxweZ_RM-154" value="+ process(HttpServletRequest, HttpServletResponse) : String" style="text;strokeColor=none;fillColor=none;align=left;verticalAlign=top;spacingLeft=4;spacingRight=4;overflow=hidden;rotatable=0;points=[[0,0.5],[1,0.5]];portConstraint=eastwest;whiteSpace=wrap;html=1;" vertex="1" parent="0f5Nf56xRpMQTxweZ_RM-151">
          <mxGeometry y="60" width="454" height="26" as="geometry" />
        </mxCell>
        <mxCell id="0f5Nf56xRpMQTxweZ_RM-155" value="MemberSaveControllerV4" style="swimlane;fontStyle=1;align=center;verticalAlign=top;childLayout=stackLayout;horizontal=1;startSize=26;horizontalStack=0;resizeParent=1;resizeParentMax=0;resizeLast=0;collapsible=1;marginBottom=0;whiteSpace=wrap;html=1;" vertex="1" parent="0f5Nf56xRpMQTxweZ_RM-1">
          <mxGeometry x="827" y="3406" width="455" height="86" as="geometry" />
        </mxCell>
        <mxCell id="0f5Nf56xRpMQTxweZ_RM-156" value="&lt;span style=&quot;text-wrap: nowrap;&quot;&gt;-&amp;nbsp;&lt;/span&gt;" style="text;strokeColor=none;fillColor=none;align=left;verticalAlign=top;spacingLeft=4;spacingRight=4;overflow=hidden;rotatable=0;points=[[0,0.5],[1,0.5]];portConstraint=eastwest;whiteSpace=wrap;html=1;" vertex="1" parent="0f5Nf56xRpMQTxweZ_RM-155">
          <mxGeometry y="26" width="455" height="26" as="geometry" />
        </mxCell>
        <mxCell id="0f5Nf56xRpMQTxweZ_RM-157" value="" style="line;strokeWidth=1;fillColor=none;align=left;verticalAlign=middle;spacingTop=-1;spacingLeft=3;spacingRight=3;rotatable=0;labelPosition=right;points=[];portConstraint=eastwest;strokeColor=inherit;" vertex="1" parent="0f5Nf56xRpMQTxweZ_RM-155">
          <mxGeometry y="52" width="455" height="8" as="geometry" />
        </mxCell>
        <mxCell id="0f5Nf56xRpMQTxweZ_RM-158" value="+ process(HttpServletRequest, HttpServletResponse) : String" style="text;strokeColor=none;fillColor=none;align=left;verticalAlign=top;spacingLeft=4;spacingRight=4;overflow=hidden;rotatable=0;points=[[0,0.5],[1,0.5]];portConstraint=eastwest;whiteSpace=wrap;html=1;" vertex="1" parent="0f5Nf56xRpMQTxweZ_RM-155">
          <mxGeometry y="60" width="455" height="26" as="geometry" />
        </mxCell>
        <mxCell id="0f5Nf56xRpMQTxweZ_RM-162" value="" style="endArrow=block;startArrow=block;endFill=1;startFill=1;html=1;rounded=0;entryX=0;entryY=0.25;entryDx=0;entryDy=0;" edge="1" parent="0f5Nf56xRpMQTxweZ_RM-1" target="0f5Nf56xRpMQTxweZ_RM-146">
          <mxGeometry width="160" relative="1" as="geometry">
            <mxPoint x="1281" y="3201" as="sourcePoint" />
            <mxPoint x="1437" y="3203" as="targetPoint" />
          </mxGeometry>
        </mxCell>
        <mxCell id="0f5Nf56xRpMQTxweZ_RM-163" value="" style="endArrow=block;startArrow=block;endFill=1;startFill=1;html=1;rounded=0;entryX=0;entryY=0.25;entryDx=0;entryDy=0;" edge="1" parent="0f5Nf56xRpMQTxweZ_RM-1" target="0f5Nf56xRpMQTxweZ_RM-146">
          <mxGeometry width="160" relative="1" as="geometry">
            <mxPoint x="1280" y="3312" as="sourcePoint" />
            <mxPoint x="1369" y="3413" as="targetPoint" />
          </mxGeometry>
        </mxCell>
        <mxCell id="0f5Nf56xRpMQTxweZ_RM-164" value="Implements" style="edgeLabel;html=1;align=center;verticalAlign=middle;resizable=0;points=[];" vertex="1" connectable="0" parent="0f5Nf56xRpMQTxweZ_RM-163">
          <mxGeometry x="-0.0181" relative="1" as="geometry">
            <mxPoint as="offset" />
          </mxGeometry>
        </mxCell>
        <mxCell id="0f5Nf56xRpMQTxweZ_RM-165" value="" style="endArrow=block;startArrow=block;endFill=1;startFill=1;html=1;rounded=0;entryX=0;entryY=0.25;entryDx=0;entryDy=0;" edge="1" parent="0f5Nf56xRpMQTxweZ_RM-1" target="0f5Nf56xRpMQTxweZ_RM-146">
          <mxGeometry width="160" relative="1" as="geometry">
            <mxPoint x="1280" y="3419" as="sourcePoint" />
            <mxPoint x="1370" y="3409" as="targetPoint" />
          </mxGeometry>
        </mxCell>
        <mxCell id="0f5Nf56xRpMQTxweZ_RM-166" value="Implements" style="edgeLabel;html=1;align=center;verticalAlign=middle;resizable=0;points=[];" vertex="1" connectable="0" parent="0f5Nf56xRpMQTxweZ_RM-1">
          <mxGeometry x="1331.00498003893" y="3256.996295182349" as="geometry" />
        </mxCell>
        <mxCell id="0f5Nf56xRpMQTxweZ_RM-167" value="Implements" style="edgeLabel;html=1;align=center;verticalAlign=middle;resizable=0;points=[];" vertex="1" connectable="0" parent="0f5Nf56xRpMQTxweZ_RM-1">
          <mxGeometry x="1331.00498003893" y="3365.996295182349" as="geometry" />
        </mxCell>
        <mxCell id="0f5Nf56xRpMQTxweZ_RM-168" value="return" style="html=1;verticalAlign=bottom;endArrow=open;dashed=1;endSize=8;curved=0;rounded=0;" edge="1" parent="0f5Nf56xRpMQTxweZ_RM-1">
          <mxGeometry relative="1" as="geometry">
            <mxPoint x="748" y="4047" as="sourcePoint" />
            <mxPoint x="160" y="4047" as="targetPoint" />
          </mxGeometry>
        </mxCell>
        <mxCell id="0f5Nf56xRpMQTxweZ_RM-169" value="FrontControllerServletV5 생성자에서&amp;nbsp;&lt;div&gt;&lt;div&gt;MemberController 3개를 initHandlerMappingMap으로 선언,&amp;nbsp;&lt;span style=&quot;background-color: initial;&quot;&gt;요청이 들어오면&amp;nbsp;&lt;/span&gt;&lt;/div&gt;&lt;/div&gt;&lt;div&gt;&lt;span style=&quot;background-color: initial;&quot;&gt;FrontControllerServletV5 service 메소드에서 getHandler 로 handler를 맵핑해 주고&amp;nbsp;&lt;/span&gt;&lt;/div&gt;&lt;div&gt;V3를 처리할 Adapter를&amp;nbsp;&lt;span style=&quot;background-color: initial;&quot;&gt;getHandlerAdapter를 통해 &lt;/span&gt;&lt;span style=&quot;background-color: initial;&quot;&gt;handler에 해당하는 Adapter를 찾아서 실행한다.&amp;nbsp;&lt;/span&gt;&lt;/div&gt;&lt;div&gt;&lt;br&gt;&lt;/div&gt;&lt;div&gt;&lt;br&gt;&lt;/div&gt;&lt;div&gt;&lt;span style=&quot;background-color: initial;&quot;&gt;각각 adapter.handle 에서는 ModelView를 리턴한다.&lt;/span&gt;&lt;/div&gt;&lt;div&gt;&lt;span style=&quot;background-color: initial;&quot;&gt;ModelView에 model과 viewName으로&amp;nbsp;&lt;/span&gt;&lt;/div&gt;&lt;div&gt;&lt;span style=&quot;background-color: initial;&quot;&gt;viewResolver를 메서드를 통해 MyView를 리턴받는다&lt;/span&gt;&lt;/div&gt;&lt;div&gt;&lt;br&gt;&lt;/div&gt;&lt;div&gt;&lt;span style=&quot;background-color: initial;&quot;&gt;MyView render 메서드로 model과 같이&amp;nbsp;&amp;nbsp;&lt;/span&gt;&lt;span style=&quot;background-color: initial;&quot;&gt;RequestDispatcher로 forward 한다&lt;/span&gt;&lt;/div&gt;" style="text;html=1;align=left;verticalAlign=middle;whiteSpace=wrap;rounded=0;" vertex="1" parent="0f5Nf56xRpMQTxweZ_RM-1">
          <mxGeometry x="97" y="3903" width="510" height="39" as="geometry" />
        </mxCell>
        <mxCell id="0f5Nf56xRpMQTxweZ_RM-170" value="&lt;p style=&quot;margin:0px;margin-top:4px;text-align:center;&quot;&gt;&lt;i&gt;&amp;lt;&amp;lt;Interface&amp;gt;&amp;gt;&lt;/i&gt;&lt;br&gt;&lt;b&gt;MyHandlerAdapter&lt;/b&gt;&lt;/p&gt;&lt;hr size=&quot;1&quot; style=&quot;border-style:solid;&quot;&gt;&lt;p style=&quot;margin:0px;margin-left:4px;&quot;&gt;-&amp;nbsp;&lt;br&gt;&lt;br&gt;&lt;/p&gt;&lt;hr size=&quot;1&quot; style=&quot;border-style:solid;&quot;&gt;&lt;p style=&quot;margin:0px;margin-left:4px;&quot;&gt;+ supports(Object handler) : boolean&lt;br&gt;&lt;/p&gt;&lt;p style=&quot;margin:0px;margin-left:4px;&quot;&gt;+ handle(&lt;span style=&quot;background-color: initial;&quot;&gt;HttpServletRequest, HttpServletResponse, Object&lt;/span&gt;&lt;span style=&quot;background-color: initial;&quot;&gt;) : ModelView&lt;/span&gt;&lt;/p&gt;" style="verticalAlign=top;align=left;overflow=fill;html=1;whiteSpace=wrap;" vertex="1" parent="0f5Nf56xRpMQTxweZ_RM-1">
          <mxGeometry x="1489" y="2496" width="435" height="125" as="geometry" />
        </mxCell>
        <mxCell id="0f5Nf56xRpMQTxweZ_RM-171" value="ControllerV4HandlerAdapter" style="swimlane;fontStyle=1;align=center;verticalAlign=top;childLayout=stackLayout;horizontal=1;startSize=26;horizontalStack=0;resizeParent=1;resizeParentMax=0;resizeLast=0;collapsible=1;marginBottom=0;whiteSpace=wrap;html=1;" vertex="1" parent="0f5Nf56xRpMQTxweZ_RM-1">
          <mxGeometry x="823" y="2589" width="473" height="164" as="geometry" />
        </mxCell>
        <mxCell id="0f5Nf56xRpMQTxweZ_RM-172" value="&lt;span style=&quot;text-wrap: nowrap;&quot;&gt;- handlerMappingMap : Map&amp;lt;String, Object&amp;gt;&lt;/span&gt;" style="text;strokeColor=none;fillColor=none;align=left;verticalAlign=top;spacingLeft=4;spacingRight=4;overflow=hidden;rotatable=0;points=[[0,0.5],[1,0.5]];portConstraint=eastwest;whiteSpace=wrap;html=1;" vertex="1" parent="0f5Nf56xRpMQTxweZ_RM-171">
          <mxGeometry y="26" width="473" height="26" as="geometry" />
        </mxCell>
        <mxCell id="0f5Nf56xRpMQTxweZ_RM-173" value="- handlerAdapters : List&amp;lt;MyhandlerAdapter&amp;gt;" style="text;strokeColor=none;fillColor=none;align=left;verticalAlign=top;spacingLeft=4;spacingRight=4;overflow=hidden;rotatable=0;points=[[0,0.5],[1,0.5]];portConstraint=eastwest;whiteSpace=wrap;html=1;" vertex="1" parent="0f5Nf56xRpMQTxweZ_RM-171">
          <mxGeometry y="52" width="473" height="26" as="geometry" />
        </mxCell>
        <mxCell id="0f5Nf56xRpMQTxweZ_RM-174" value="" style="line;strokeWidth=1;fillColor=none;align=left;verticalAlign=middle;spacingTop=-1;spacingLeft=3;spacingRight=3;rotatable=0;labelPosition=right;points=[];portConstraint=eastwest;strokeColor=inherit;" vertex="1" parent="0f5Nf56xRpMQTxweZ_RM-171">
          <mxGeometry y="78" width="473" height="8" as="geometry" />
        </mxCell>
        <mxCell id="0f5Nf56xRpMQTxweZ_RM-175" value="&lt;span style=&quot;text-wrap: nowrap;&quot;&gt;+ supports(Object handler) : boolean&lt;/span&gt;" style="text;strokeColor=none;fillColor=none;align=left;verticalAlign=top;spacingLeft=4;spacingRight=4;overflow=hidden;rotatable=0;points=[[0,0.5],[1,0.5]];portConstraint=eastwest;whiteSpace=wrap;html=1;" vertex="1" parent="0f5Nf56xRpMQTxweZ_RM-171">
          <mxGeometry y="86" width="473" height="26" as="geometry" />
        </mxCell>
        <mxCell id="0f5Nf56xRpMQTxweZ_RM-176" value="+ handle(HttpServletRequest, HttpServletResponse, Object) : ModelView" style="text;strokeColor=none;fillColor=none;align=left;verticalAlign=top;spacingLeft=4;spacingRight=4;overflow=hidden;rotatable=0;points=[[0,0.5],[1,0.5]];portConstraint=eastwest;whiteSpace=wrap;html=1;" vertex="1" parent="0f5Nf56xRpMQTxweZ_RM-171">
          <mxGeometry y="112" width="473" height="26" as="geometry" />
        </mxCell>
        <mxCell id="0f5Nf56xRpMQTxweZ_RM-177" value="+ createParamMap(HttpServletRequest, HttpServletResponse)&amp;nbsp;: Map&amp;lt;String, String&amp;gt;" style="text;strokeColor=none;fillColor=none;align=left;verticalAlign=top;spacingLeft=4;spacingRight=4;overflow=hidden;rotatable=0;points=[[0,0.5],[1,0.5]];portConstraint=eastwest;whiteSpace=wrap;html=1;" vertex="1" parent="0f5Nf56xRpMQTxweZ_RM-171">
          <mxGeometry y="138" width="473" height="26" as="geometry" />
        </mxCell>
        <mxCell id="0f5Nf56xRpMQTxweZ_RM-178" value="" style="endArrow=block;startArrow=block;endFill=1;startFill=1;html=1;rounded=0;exitX=1.002;exitY=1.115;exitDx=0;exitDy=0;exitPerimeter=0;entryX=-0.005;entryY=0.592;entryDx=0;entryDy=0;entryPerimeter=0;" edge="1" parent="0f5Nf56xRpMQTxweZ_RM-1" source="0f5Nf56xRpMQTxweZ_RM-173" target="0f5Nf56xRpMQTxweZ_RM-170">
          <mxGeometry width="160" relative="1" as="geometry">
            <mxPoint x="1218" y="2504" as="sourcePoint" />
            <mxPoint x="1336" y="2421" as="targetPoint" />
          </mxGeometry>
        </mxCell>
        <mxCell id="0f5Nf56xRpMQTxweZ_RM-179" value="Implements" style="edgeLabel;html=1;align=center;verticalAlign=middle;resizable=0;points=[];" vertex="1" connectable="0" parent="0f5Nf56xRpMQTxweZ_RM-1">
          <mxGeometry x="1368.00498003893" y="2657.496295182349" as="geometry" />
        </mxCell>
        <mxCell id="0f5Nf56xRpMQTxweZ_RM-196" value="HttpServlet" style="swimlane;fontStyle=1;align=center;verticalAlign=top;childLayout=stackLayout;horizontal=1;startSize=26;horizontalStack=0;resizeParent=1;resizeParentMax=0;resizeLast=0;collapsible=1;marginBottom=0;whiteSpace=wrap;html=1;" vertex="1" parent="0f5Nf56xRpMQTxweZ_RM-1">
          <mxGeometry x="213" y="2651" width="370" height="60" as="geometry" />
        </mxCell>
        <mxCell id="0f5Nf56xRpMQTxweZ_RM-197" value="" style="line;strokeWidth=1;fillColor=none;align=left;verticalAlign=middle;spacingTop=-1;spacingLeft=3;spacingRight=3;rotatable=0;labelPosition=right;points=[];portConstraint=eastwest;strokeColor=inherit;" vertex="1" parent="0f5Nf56xRpMQTxweZ_RM-196">
          <mxGeometry y="26" width="370" height="8" as="geometry" />
        </mxCell>
        <mxCell id="0f5Nf56xRpMQTxweZ_RM-198" value="+ service(HttpServletRequest, HttpServletResponse) : void" style="text;strokeColor=none;fillColor=none;align=left;verticalAlign=top;spacingLeft=4;spacingRight=4;overflow=hidden;rotatable=0;points=[[0,0.5],[1,0.5]];portConstraint=eastwest;whiteSpace=wrap;html=1;" vertex="1" parent="0f5Nf56xRpMQTxweZ_RM-196">
          <mxGeometry y="34" width="370" height="26" as="geometry" />
        </mxCell>
        <mxCell id="0f5Nf56xRpMQTxweZ_RM-199" value="Use" style="endArrow=open;endSize=12;dashed=1;html=1;rounded=0;exitX=0;exitY=0.5;exitDx=0;exitDy=0;" edge="1" parent="0f5Nf56xRpMQTxweZ_RM-1" source="0f5Nf56xRpMQTxweZ_RM-173">
          <mxGeometry width="160" relative="1" as="geometry">
            <mxPoint x="815" y="2617" as="sourcePoint" />
            <mxPoint x="418" y="2842" as="targetPoint" />
          </mxGeometry>
        </mxCell>
        <mxCell id="0f5Nf56xRpMQTxweZ_RM-200" value="Extends" style="endArrow=block;endSize=16;endFill=0;html=1;rounded=0;exitX=0.481;exitY=1;exitDx=0;exitDy=0;exitPerimeter=0;" edge="1" parent="0f5Nf56xRpMQTxweZ_RM-1" source="0f5Nf56xRpMQTxweZ_RM-198">
          <mxGeometry width="160" relative="1" as="geometry">
            <mxPoint x="392.0500000000002" y="2719.002" as="sourcePoint" />
            <mxPoint x="392" y="2842" as="targetPoint" />
          </mxGeometry>
        </mxCell>
        <mxCell id="Rqbfe305cWomoKFocjE2-0" value="&lt;p style=&quot;margin:0px;margin-top:4px;text-align:center;&quot;&gt;&lt;i&gt;&amp;lt;&amp;lt;Interface&amp;gt;&amp;gt;&lt;/i&gt;&lt;br&gt;&lt;b&gt;ControllerV3&lt;/b&gt;&lt;/p&gt;&lt;hr size=&quot;1&quot; style=&quot;border-style:solid;&quot;&gt;&lt;p style=&quot;margin:0px;margin-left:4px;&quot;&gt;-&amp;nbsp;&lt;br&gt;&lt;br&gt;&lt;/p&gt;&lt;hr size=&quot;1&quot; style=&quot;border-style:solid;&quot;&gt;&lt;p style=&quot;margin:0px;margin-left:4px;&quot;&gt;+ process(HttpServletRequest, HttpServletResponse): ModelView&lt;br&gt;&lt;/p&gt;" style="verticalAlign=top;align=left;overflow=fill;html=1;whiteSpace=wrap;" vertex="1" parent="0f5Nf56xRpMQTxweZ_RM-1">
          <mxGeometry x="1392" y="2932" width="372" height="110" as="geometry" />
        </mxCell>
        <mxCell id="Rqbfe305cWomoKFocjE2-1" value="MemberFormControllerV3" style="swimlane;fontStyle=1;align=center;verticalAlign=top;childLayout=stackLayout;horizontal=1;startSize=26;horizontalStack=0;resizeParent=1;resizeParentMax=0;resizeLast=0;collapsible=1;marginBottom=0;whiteSpace=wrap;html=1;" vertex="1" parent="0f5Nf56xRpMQTxweZ_RM-1">
          <mxGeometry x="827" y="2834" width="453" height="86" as="geometry" />
        </mxCell>
        <mxCell id="Rqbfe305cWomoKFocjE2-2" value="&lt;span style=&quot;text-wrap: nowrap;&quot;&gt;-&amp;nbsp;&lt;/span&gt;" style="text;strokeColor=none;fillColor=none;align=left;verticalAlign=top;spacingLeft=4;spacingRight=4;overflow=hidden;rotatable=0;points=[[0,0.5],[1,0.5]];portConstraint=eastwest;whiteSpace=wrap;html=1;" vertex="1" parent="Rqbfe305cWomoKFocjE2-1">
          <mxGeometry y="26" width="453" height="26" as="geometry" />
        </mxCell>
        <mxCell id="Rqbfe305cWomoKFocjE2-3" value="" style="line;strokeWidth=1;fillColor=none;align=left;verticalAlign=middle;spacingTop=-1;spacingLeft=3;spacingRight=3;rotatable=0;labelPosition=right;points=[];portConstraint=eastwest;strokeColor=inherit;" vertex="1" parent="Rqbfe305cWomoKFocjE2-1">
          <mxGeometry y="52" width="453" height="8" as="geometry" />
        </mxCell>
        <mxCell id="Rqbfe305cWomoKFocjE2-4" value="+ process(HttpServletRequest, HttpServletResponse) : ModelView" style="text;strokeColor=none;fillColor=none;align=left;verticalAlign=top;spacingLeft=4;spacingRight=4;overflow=hidden;rotatable=0;points=[[0,0.5],[1,0.5]];portConstraint=eastwest;whiteSpace=wrap;html=1;" vertex="1" parent="Rqbfe305cWomoKFocjE2-1">
          <mxGeometry y="60" width="453" height="26" as="geometry" />
        </mxCell>
        <mxCell id="Rqbfe305cWomoKFocjE2-5" value="MemberListControllerV3" style="swimlane;fontStyle=1;align=center;verticalAlign=top;childLayout=stackLayout;horizontal=1;startSize=26;horizontalStack=0;resizeParent=1;resizeParentMax=0;resizeLast=0;collapsible=1;marginBottom=0;whiteSpace=wrap;html=1;" vertex="1" parent="0f5Nf56xRpMQTxweZ_RM-1">
          <mxGeometry x="827" y="2944" width="455" height="86" as="geometry" />
        </mxCell>
        <mxCell id="Rqbfe305cWomoKFocjE2-6" value="&lt;span style=&quot;text-wrap: nowrap;&quot;&gt;-&amp;nbsp;&lt;/span&gt;" style="text;strokeColor=none;fillColor=none;align=left;verticalAlign=top;spacingLeft=4;spacingRight=4;overflow=hidden;rotatable=0;points=[[0,0.5],[1,0.5]];portConstraint=eastwest;whiteSpace=wrap;html=1;" vertex="1" parent="Rqbfe305cWomoKFocjE2-5">
          <mxGeometry y="26" width="455" height="26" as="geometry" />
        </mxCell>
        <mxCell id="Rqbfe305cWomoKFocjE2-7" value="" style="line;strokeWidth=1;fillColor=none;align=left;verticalAlign=middle;spacingTop=-1;spacingLeft=3;spacingRight=3;rotatable=0;labelPosition=right;points=[];portConstraint=eastwest;strokeColor=inherit;" vertex="1" parent="Rqbfe305cWomoKFocjE2-5">
          <mxGeometry y="52" width="455" height="8" as="geometry" />
        </mxCell>
        <mxCell id="Rqbfe305cWomoKFocjE2-8" value="+ process(HttpServletRequest, HttpServletResponse) : ModelView" style="text;strokeColor=none;fillColor=none;align=left;verticalAlign=top;spacingLeft=4;spacingRight=4;overflow=hidden;rotatable=0;points=[[0,0.5],[1,0.5]];portConstraint=eastwest;whiteSpace=wrap;html=1;" vertex="1" parent="Rqbfe305cWomoKFocjE2-5">
          <mxGeometry y="60" width="455" height="26" as="geometry" />
        </mxCell>
        <mxCell id="Rqbfe305cWomoKFocjE2-9" value="MemberSaveControllerV3" style="swimlane;fontStyle=1;align=center;verticalAlign=top;childLayout=stackLayout;horizontal=1;startSize=26;horizontalStack=0;resizeParent=1;resizeParentMax=0;resizeLast=0;collapsible=1;marginBottom=0;whiteSpace=wrap;html=1;" vertex="1" parent="0f5Nf56xRpMQTxweZ_RM-1">
          <mxGeometry x="827" y="3054" width="455" height="86" as="geometry" />
        </mxCell>
        <mxCell id="Rqbfe305cWomoKFocjE2-10" value="&lt;span style=&quot;text-wrap: nowrap;&quot;&gt;-&amp;nbsp;&lt;/span&gt;" style="text;strokeColor=none;fillColor=none;align=left;verticalAlign=top;spacingLeft=4;spacingRight=4;overflow=hidden;rotatable=0;points=[[0,0.5],[1,0.5]];portConstraint=eastwest;whiteSpace=wrap;html=1;" vertex="1" parent="Rqbfe305cWomoKFocjE2-9">
          <mxGeometry y="26" width="455" height="26" as="geometry" />
        </mxCell>
        <mxCell id="Rqbfe305cWomoKFocjE2-11" value="" style="line;strokeWidth=1;fillColor=none;align=left;verticalAlign=middle;spacingTop=-1;spacingLeft=3;spacingRight=3;rotatable=0;labelPosition=right;points=[];portConstraint=eastwest;strokeColor=inherit;" vertex="1" parent="Rqbfe305cWomoKFocjE2-9">
          <mxGeometry y="52" width="455" height="8" as="geometry" />
        </mxCell>
        <mxCell id="Rqbfe305cWomoKFocjE2-12" value="+ process(HttpServletRequest, HttpServletResponse) : ModelView" style="text;strokeColor=none;fillColor=none;align=left;verticalAlign=top;spacingLeft=4;spacingRight=4;overflow=hidden;rotatable=0;points=[[0,0.5],[1,0.5]];portConstraint=eastwest;whiteSpace=wrap;html=1;" vertex="1" parent="Rqbfe305cWomoKFocjE2-9">
          <mxGeometry y="60" width="455" height="26" as="geometry" />
        </mxCell>
        <mxCell id="Rqbfe305cWomoKFocjE2-13" value="" style="endArrow=block;startArrow=block;endFill=1;startFill=1;html=1;rounded=0;entryX=0;entryY=0.25;entryDx=0;entryDy=0;" edge="1" parent="0f5Nf56xRpMQTxweZ_RM-1" target="Rqbfe305cWomoKFocjE2-0">
          <mxGeometry width="160" relative="1" as="geometry">
            <mxPoint x="1283" y="2847" as="sourcePoint" />
            <mxPoint x="1439" y="2849" as="targetPoint" />
          </mxGeometry>
        </mxCell>
        <mxCell id="Rqbfe305cWomoKFocjE2-14" value="" style="endArrow=block;startArrow=block;endFill=1;startFill=1;html=1;rounded=0;entryX=0;entryY=0.25;entryDx=0;entryDy=0;" edge="1" parent="0f5Nf56xRpMQTxweZ_RM-1" target="Rqbfe305cWomoKFocjE2-0">
          <mxGeometry width="160" relative="1" as="geometry">
            <mxPoint x="1282" y="2958" as="sourcePoint" />
            <mxPoint x="1371" y="3059" as="targetPoint" />
          </mxGeometry>
        </mxCell>
        <mxCell id="Rqbfe305cWomoKFocjE2-15" value="Implements" style="edgeLabel;html=1;align=center;verticalAlign=middle;resizable=0;points=[];" vertex="1" connectable="0" parent="Rqbfe305cWomoKFocjE2-14">
          <mxGeometry x="-0.0181" relative="1" as="geometry">
            <mxPoint as="offset" />
          </mxGeometry>
        </mxCell>
        <mxCell id="Rqbfe305cWomoKFocjE2-16" value="" style="endArrow=block;startArrow=block;endFill=1;startFill=1;html=1;rounded=0;entryX=0;entryY=0.25;entryDx=0;entryDy=0;" edge="1" parent="0f5Nf56xRpMQTxweZ_RM-1" target="Rqbfe305cWomoKFocjE2-0">
          <mxGeometry width="160" relative="1" as="geometry">
            <mxPoint x="1282" y="3065" as="sourcePoint" />
            <mxPoint x="1372" y="3055" as="targetPoint" />
          </mxGeometry>
        </mxCell>
        <mxCell id="Rqbfe305cWomoKFocjE2-17" value="Implements" style="edgeLabel;html=1;align=center;verticalAlign=middle;resizable=0;points=[];" vertex="1" connectable="0" parent="0f5Nf56xRpMQTxweZ_RM-1">
          <mxGeometry x="1333.00498003893" y="2902.996295182349" as="geometry" />
        </mxCell>
        <mxCell id="Rqbfe305cWomoKFocjE2-18" value="Implements" style="edgeLabel;html=1;align=center;verticalAlign=middle;resizable=0;points=[];" vertex="1" connectable="0" parent="0f5Nf56xRpMQTxweZ_RM-1">
          <mxGeometry x="1333.00498003893" y="3011.996295182349" as="geometry" />
        </mxCell>
        <mxCell id="Rqbfe305cWomoKFocjE2-19" value="ModelVIew" style="swimlane;fontStyle=1;align=center;verticalAlign=top;childLayout=stackLayout;horizontal=1;startSize=26;horizontalStack=0;resizeParent=1;resizeParentMax=0;resizeLast=0;collapsible=1;marginBottom=0;whiteSpace=wrap;html=1;" vertex="1" parent="0f5Nf56xRpMQTxweZ_RM-1">
          <mxGeometry x="1880" y="2927" width="203" height="112" as="geometry" />
        </mxCell>
        <mxCell id="Rqbfe305cWomoKFocjE2-20" value="&lt;span style=&quot;text-wrap: nowrap;&quot;&gt;- viewName: String&lt;/span&gt;" style="text;strokeColor=none;fillColor=none;align=left;verticalAlign=top;spacingLeft=4;spacingRight=4;overflow=hidden;rotatable=0;points=[[0,0.5],[1,0.5]];portConstraint=eastwest;whiteSpace=wrap;html=1;" vertex="1" parent="Rqbfe305cWomoKFocjE2-19">
          <mxGeometry y="26" width="203" height="26" as="geometry" />
        </mxCell>
        <mxCell id="Rqbfe305cWomoKFocjE2-21" value="- model : Map&amp;lt;String, Object&amp;gt;" style="text;strokeColor=none;fillColor=none;align=left;verticalAlign=top;spacingLeft=4;spacingRight=4;overflow=hidden;rotatable=0;points=[[0,0.5],[1,0.5]];portConstraint=eastwest;whiteSpace=wrap;html=1;" vertex="1" parent="Rqbfe305cWomoKFocjE2-19">
          <mxGeometry y="52" width="203" height="26" as="geometry" />
        </mxCell>
        <mxCell id="Rqbfe305cWomoKFocjE2-22" value="" style="line;strokeWidth=1;fillColor=none;align=left;verticalAlign=middle;spacingTop=-1;spacingLeft=3;spacingRight=3;rotatable=0;labelPosition=right;points=[];portConstraint=eastwest;strokeColor=inherit;" vertex="1" parent="Rqbfe305cWomoKFocjE2-19">
          <mxGeometry y="78" width="203" height="8" as="geometry" />
        </mxCell>
        <mxCell id="Rqbfe305cWomoKFocjE2-23" value="+ ModelView(viewName)" style="text;strokeColor=none;fillColor=none;align=left;verticalAlign=top;spacingLeft=4;spacingRight=4;overflow=hidden;rotatable=0;points=[[0,0.5],[1,0.5]];portConstraint=eastwest;whiteSpace=wrap;html=1;" vertex="1" parent="Rqbfe305cWomoKFocjE2-19">
          <mxGeometry y="86" width="203" height="26" as="geometry" />
        </mxCell>
        <mxCell id="Rqbfe305cWomoKFocjE2-24" value="Use" style="endArrow=open;endSize=12;dashed=1;html=1;rounded=0;exitX=1;exitY=0.427;exitDx=0;exitDy=0;exitPerimeter=0;" edge="1" parent="0f5Nf56xRpMQTxweZ_RM-1" source="Rqbfe305cWomoKFocjE2-0">
          <mxGeometry width="160" relative="1" as="geometry">
            <mxPoint x="1577" y="3042" as="sourcePoint" />
            <mxPoint x="1880" y="2979" as="targetPoint" />
          </mxGeometry>
        </mxCell>
        <mxCell id="Rqbfe305cWomoKFocjE2-26" value="ControllerV3HandlerAdapter" style="swimlane;fontStyle=1;align=center;verticalAlign=top;childLayout=stackLayout;horizontal=1;startSize=26;horizontalStack=0;resizeParent=1;resizeParentMax=0;resizeLast=0;collapsible=1;marginBottom=0;whiteSpace=wrap;html=1;" vertex="1" parent="0f5Nf56xRpMQTxweZ_RM-1">
          <mxGeometry x="820" y="2376" width="473" height="164" as="geometry" />
        </mxCell>
        <mxCell id="Rqbfe305cWomoKFocjE2-27" value="&lt;span style=&quot;text-wrap: nowrap;&quot;&gt;- handlerMappingMap : Map&amp;lt;String, Object&amp;gt;&lt;/span&gt;" style="text;strokeColor=none;fillColor=none;align=left;verticalAlign=top;spacingLeft=4;spacingRight=4;overflow=hidden;rotatable=0;points=[[0,0.5],[1,0.5]];portConstraint=eastwest;whiteSpace=wrap;html=1;" vertex="1" parent="Rqbfe305cWomoKFocjE2-26">
          <mxGeometry y="26" width="473" height="26" as="geometry" />
        </mxCell>
        <mxCell id="Rqbfe305cWomoKFocjE2-28" value="- handlerAdapters : List&amp;lt;MyhandlerAdapter&amp;gt;" style="text;strokeColor=none;fillColor=none;align=left;verticalAlign=top;spacingLeft=4;spacingRight=4;overflow=hidden;rotatable=0;points=[[0,0.5],[1,0.5]];portConstraint=eastwest;whiteSpace=wrap;html=1;" vertex="1" parent="Rqbfe305cWomoKFocjE2-26">
          <mxGeometry y="52" width="473" height="26" as="geometry" />
        </mxCell>
        <mxCell id="Rqbfe305cWomoKFocjE2-29" value="" style="line;strokeWidth=1;fillColor=none;align=left;verticalAlign=middle;spacingTop=-1;spacingLeft=3;spacingRight=3;rotatable=0;labelPosition=right;points=[];portConstraint=eastwest;strokeColor=inherit;" vertex="1" parent="Rqbfe305cWomoKFocjE2-26">
          <mxGeometry y="78" width="473" height="8" as="geometry" />
        </mxCell>
        <mxCell id="Rqbfe305cWomoKFocjE2-30" value="&lt;span style=&quot;text-wrap: nowrap;&quot;&gt;+ supports(Object handler) : boolean&lt;/span&gt;" style="text;strokeColor=none;fillColor=none;align=left;verticalAlign=top;spacingLeft=4;spacingRight=4;overflow=hidden;rotatable=0;points=[[0,0.5],[1,0.5]];portConstraint=eastwest;whiteSpace=wrap;html=1;" vertex="1" parent="Rqbfe305cWomoKFocjE2-26">
          <mxGeometry y="86" width="473" height="26" as="geometry" />
        </mxCell>
        <mxCell id="Rqbfe305cWomoKFocjE2-31" value="+ handle(HttpServletRequest, HttpServletResponse, Object) : ModelView" style="text;strokeColor=none;fillColor=none;align=left;verticalAlign=top;spacingLeft=4;spacingRight=4;overflow=hidden;rotatable=0;points=[[0,0.5],[1,0.5]];portConstraint=eastwest;whiteSpace=wrap;html=1;" vertex="1" parent="Rqbfe305cWomoKFocjE2-26">
          <mxGeometry y="112" width="473" height="26" as="geometry" />
        </mxCell>
        <mxCell id="Rqbfe305cWomoKFocjE2-32" value="+ createParamMap(HttpServletRequest, HttpServletResponse)&amp;nbsp;: Map&amp;lt;String, String&amp;gt;" style="text;strokeColor=none;fillColor=none;align=left;verticalAlign=top;spacingLeft=4;spacingRight=4;overflow=hidden;rotatable=0;points=[[0,0.5],[1,0.5]];portConstraint=eastwest;whiteSpace=wrap;html=1;" vertex="1" parent="Rqbfe305cWomoKFocjE2-26">
          <mxGeometry y="138" width="473" height="26" as="geometry" />
        </mxCell>
        <mxCell id="Rqbfe305cWomoKFocjE2-33" value="" style="endArrow=block;startArrow=block;endFill=1;startFill=1;html=1;rounded=0;exitX=1.002;exitY=1.115;exitDx=0;exitDy=0;exitPerimeter=0;entryX=-0.005;entryY=0.432;entryDx=0;entryDy=0;entryPerimeter=0;" edge="1" parent="0f5Nf56xRpMQTxweZ_RM-1" source="Rqbfe305cWomoKFocjE2-28" target="0f5Nf56xRpMQTxweZ_RM-170">
          <mxGeometry width="160" relative="1" as="geometry">
            <mxPoint x="1215" y="2291" as="sourcePoint" />
            <mxPoint x="1439.8249999999998" y="2456" as="targetPoint" />
          </mxGeometry>
        </mxCell>
        <mxCell id="Rqbfe305cWomoKFocjE2-34" value="Implements" style="edgeLabel;html=1;align=center;verticalAlign=middle;resizable=0;points=[];" vertex="1" connectable="0" parent="0f5Nf56xRpMQTxweZ_RM-1">
          <mxGeometry x="1365.00498003893" y="2444.496295182349" as="geometry" />
        </mxCell>
        <mxCell id="Rqbfe305cWomoKFocjE2-35" value="Use" style="endArrow=open;endSize=12;dashed=1;html=1;rounded=0;exitX=-0.008;exitY=-0.154;exitDx=0;exitDy=0;exitPerimeter=0;" edge="1" parent="0f5Nf56xRpMQTxweZ_RM-1" source="Rqbfe305cWomoKFocjE2-30">
          <mxGeometry width="160" relative="1" as="geometry">
            <mxPoint x="816" y="2630" as="sourcePoint" />
            <mxPoint x="421" y="2840" as="targetPoint" />
            <Array as="points">
              <mxPoint x="661" y="2681" />
            </Array>
          </mxGeometry>
        </mxCell>
        <mxCell id="Rqbfe305cWomoKFocjE2-36" value="Use" style="endArrow=open;endSize=12;dashed=1;html=1;rounded=0;entryX=0;entryY=0.154;entryDx=0;entryDy=0;entryPerimeter=0;" edge="1" parent="0f5Nf56xRpMQTxweZ_RM-1" target="Rqbfe305cWomoKFocjE2-2">
          <mxGeometry width="160" relative="1" as="geometry">
            <mxPoint x="651" y="2894" as="sourcePoint" />
            <mxPoint x="811" y="2894" as="targetPoint" />
          </mxGeometry>
        </mxCell>
        <mxCell id="Rqbfe305cWomoKFocjE2-37" value="Use" style="endArrow=open;endSize=12;dashed=1;html=1;rounded=0;entryX=0.002;entryY=0.186;entryDx=0;entryDy=0;entryPerimeter=0;exitX=1.002;exitY=0.115;exitDx=0;exitDy=0;exitPerimeter=0;" edge="1" parent="0f5Nf56xRpMQTxweZ_RM-1" source="0f5Nf56xRpMQTxweZ_RM-138" target="Rqbfe305cWomoKFocjE2-5">
          <mxGeometry width="160" relative="1" as="geometry">
            <mxPoint x="661" y="2904" as="sourcePoint" />
            <mxPoint x="837" y="2874" as="targetPoint" />
          </mxGeometry>
        </mxCell>
        <mxCell id="Rqbfe305cWomoKFocjE2-38" value="Use" style="endArrow=open;endSize=12;dashed=1;html=1;rounded=0;entryX=0;entryY=0.14;entryDx=0;entryDy=0;entryPerimeter=0;exitX=1.002;exitY=0.115;exitDx=0;exitDy=0;exitPerimeter=0;" edge="1" parent="0f5Nf56xRpMQTxweZ_RM-1" source="0f5Nf56xRpMQTxweZ_RM-138" target="Rqbfe305cWomoKFocjE2-9">
          <mxGeometry width="160" relative="1" as="geometry">
            <mxPoint x="647" y="2914" as="sourcePoint" />
            <mxPoint x="825" y="2977" as="targetPoint" />
          </mxGeometry>
        </mxCell>
        <mxCell id="Rqbfe305cWomoKFocjE2-39" value="Use" style="endArrow=open;endSize=12;dashed=1;html=1;rounded=0;entryX=0;entryY=0.14;entryDx=0;entryDy=0;entryPerimeter=0;" edge="1" parent="0f5Nf56xRpMQTxweZ_RM-1">
          <mxGeometry width="160" relative="1" as="geometry">
            <mxPoint x="650" y="2899" as="sourcePoint" />
            <mxPoint x="827" y="3199" as="targetPoint" />
          </mxGeometry>
        </mxCell>
        <mxCell id="Rqbfe305cWomoKFocjE2-40" value="Use" style="endArrow=open;endSize=12;dashed=1;html=1;rounded=0;entryX=0;entryY=0.14;entryDx=0;entryDy=0;entryPerimeter=0;" edge="1" parent="0f5Nf56xRpMQTxweZ_RM-1">
          <mxGeometry width="160" relative="1" as="geometry">
            <mxPoint x="649" y="2900" as="sourcePoint" />
            <mxPoint x="826" y="3312" as="targetPoint" />
          </mxGeometry>
        </mxCell>
        <mxCell id="Rqbfe305cWomoKFocjE2-41" value="Use" style="endArrow=open;endSize=12;dashed=1;html=1;rounded=0;entryX=0;entryY=0.14;entryDx=0;entryDy=0;entryPerimeter=0;exitX=1;exitY=0.5;exitDx=0;exitDy=0;" edge="1" parent="0f5Nf56xRpMQTxweZ_RM-1" source="0f5Nf56xRpMQTxweZ_RM-138">
          <mxGeometry width="160" relative="1" as="geometry">
            <mxPoint x="650" y="3012" as="sourcePoint" />
            <mxPoint x="827" y="3424" as="targetPoint" />
          </mxGeometry>
        </mxCell>
        <mxCell id="Rqbfe305cWomoKFocjE2-43" value="&lt;h1 style=&quot;margin-top: 0px;&quot;&gt;V5: 유연한 컨트롤러&lt;/h1&gt;&lt;div&gt;&lt;ul&gt;&lt;li&gt;어댑터 도입&lt;/li&gt;&lt;li&gt;어댑터를 추가해서 프레임워크를 유연하고 확장성 있게 설계&lt;/li&gt;&lt;/ul&gt;&lt;/div&gt;&lt;p&gt;&lt;/p&gt;" style="text;html=1;whiteSpace=wrap;overflow=hidden;rounded=0;" vertex="1" parent="0f5Nf56xRpMQTxweZ_RM-1">
          <mxGeometry x="76" y="2379" width="361" height="120" as="geometry" />
        </mxCell>
      </root>
    </mxGraphModel>
  </diagram>
</mxfile>
